<svg width="27" height="23" viewBox="0 0 27 23" fill="none" xmlns="http://www.w3.org/2000/svg">
  <path d="M1.35 6.46875C1.35 10.04 4.07109 12.9375 7.425 12.9375H12.6267C13.5802 13.8314 14.8289 14.375 16.2 14.375C17.5711 14.375 18.8198 13.8314 19.7733 12.9375H20.925C23.5364 12.9375 25.65 10.6869 25.65 7.90625C25.65 5.12559 23.5364 2.875 20.925 2.875C20.4736 2.875 20.0391 2.94238 19.6256 3.06816C18.7228 1.24434 16.9214 0 14.85 0C13.4747 0 12.2175 0.548047 11.2598 1.45098C10.2136 0.543555 8.88047 0 7.425 0C4.07109 0 1.35 2.89746 1.35 6.46875ZM25.9875 16.5312H11.8125C11.2514 16.5312 10.8 17.0119 10.8 17.6094C10.8 18.2068 11.2514 18.6875 11.8125 18.6875H25.9875C26.5486 18.6875 27 18.2068 27 17.6094C27 17.0119 26.5486 16.5312 25.9875 16.5312ZM23.2875 20.8438H18.5625C18.0014 20.8438 17.55 21.3244 17.55 21.9219C17.55 22.5193 18.0014 23 18.5625 23H23.2875C23.8486 23 24.3 22.5193 24.3 21.9219C24.3 21.3244 23.8486 20.8438 23.2875 20.8438ZM15.1875 20.8438H1.0125C0.451406 20.8438 0 21.3244 0 21.9219C0 22.5193 0.451406 23 1.0125 23H15.1875C15.7486 23 16.2 22.5193 16.2 21.9219C16.2 21.3244 15.7486 20.8438 15.1875 20.8438ZM9.45 17.6094C9.45 17.0119 8.99859 16.5312 8.4375 16.5312H4.05C3.48891 16.5312 3.0375 17.0119 3.0375 17.6094C3.0375 18.2068 3.48891 18.6875 4.05 18.6875H8.4375C8.99859 18.6875 9.45 18.2068 9.45 17.6094Z" fill="#005587"/>
</svg>
