<svg width="27" height="23" viewBox="0 0 27 23" fill="none" xmlns="http://www.w3.org/2000/svg">
<path d="M6.75 0C6.48422 0 6.24375 0.166211 6.13406 0.426758L5.08781 2.91543L2.69578 1.94063C2.44688 1.8373 2.16422 1.90469 1.97859 2.10234C1.79297 2.3 1.72969 2.60098 1.82672 2.86602L2.74219 5.41309L0.400781 6.53164C0.156094 6.64844 0 6.90449 0 7.1875C0 7.47051 0.156094 7.72656 0.400781 7.84336L2.73797 8.95742L1.8225 11.5045C1.72547 11.7695 1.78875 12.0705 1.97438 12.2682C2.16 12.4658 2.44266 12.5332 2.69156 12.4299L5.08359 11.4551L6.12984 13.9437C6.23953 14.2043 6.48 14.3705 6.74578 14.3705C7.01156 14.3705 7.25203 14.2043 7.36172 13.9437L8.40797 11.4551L10.8 12.4299C11.0489 12.5332 11.3316 12.4658 11.5172 12.2682C11.7028 12.0705 11.7661 11.7695 11.6691 11.5045L10.7536 8.95742L13.0908 7.84336C13.3355 7.72656 13.4916 7.47051 13.4916 7.1875C13.4916 6.90449 13.3355 6.64844 13.0908 6.53164L10.7536 5.41758L11.6691 2.87051C11.7661 2.60547 11.7028 2.30449 11.5172 2.10684C11.3316 1.90918 11.0489 1.8418 10.8 1.94512L8.41219 2.91543L7.36594 0.426758C7.25625 0.166211 7.01578 0 6.75 0ZM6.75 4.3125C7.46608 4.3125 8.15284 4.6154 8.65919 5.15457C9.16554 5.69374 9.45 6.425 9.45 7.1875C9.45 7.95 9.16554 8.68126 8.65919 9.22043C8.15284 9.7596 7.46608 10.0625 6.75 10.0625C6.03392 10.0625 5.34716 9.7596 4.84081 9.22043C4.33446 8.68126 4.05 7.95 4.05 7.1875C4.05 6.425 4.33446 5.69374 4.84081 5.15457C5.34716 4.6154 6.03392 4.3125 6.75 4.3125ZM8.1 7.1875C8.1 6.80625 7.95777 6.44062 7.70459 6.17103C7.45142 5.90145 7.10804 5.75 6.75 5.75C6.39196 5.75 6.04858 5.90145 5.79541 6.17103C5.54223 6.44062 5.4 6.80625 5.4 7.1875C5.4 7.56875 5.54223 7.93438 5.79541 8.20397C6.04858 8.47355 6.39196 8.625 6.75 8.625C7.10804 8.625 7.45142 8.47355 7.70459 8.20397C7.95777 7.93438 8.1 7.56875 8.1 7.1875ZM21.2625 7.90625C21.2625 7.11113 21.8658 6.46875 22.6125 6.46875C23.3592 6.46875 23.9625 7.11113 23.9625 7.90625V10.3051C23.3381 10.651 22.95 11.3428 22.95 12.3086C22.95 13.0633 23.625 14.2852 24.5278 15.3273C24.7725 15.6059 25.1817 15.6059 25.4222 15.3273C26.325 14.2852 27 13.0588 27 12.3086C27 11.3428 26.6119 10.6465 25.9875 10.3051V7.90625C25.9875 5.9207 24.4772 4.3125 22.6125 4.3125C20.7478 4.3125 19.2375 5.9207 19.2375 7.90625V8.92598C18.8241 8.73281 18.3684 8.625 17.8875 8.625C16.0228 8.625 14.5125 10.2332 14.5125 12.2188V13.1801C13.8881 13.526 13.5 14.2178 13.5 15.1836C13.5 15.9383 14.175 17.1602 15.0778 18.2023C15.3225 18.4809 15.7317 18.4809 15.9722 18.2023C16.875 17.1602 17.55 15.9338 17.55 15.1836C17.55 14.2178 17.1619 13.5215 16.5375 13.1801V12.2188C16.5375 11.4236 17.1408 10.7812 17.8875 10.7812C18.6342 10.7812 19.2375 11.4236 19.2375 12.2188V12.5781V20.125H1.35C0.603281 20.125 0 20.7674 0 21.5625C0 22.3576 0.603281 23 1.35 23H25.65C26.3967 23 27 22.3576 27 21.5625C27 20.7674 26.3967 20.125 25.65 20.125H21.2625V12.5781V12.2188V7.90625Z" fill="white"/>
</svg>
