<svg width="211" height="67" viewBox="0 0 211 67" fill="none" xmlns="http://www.w3.org/2000/svg">
<path d="M63 15C63 6.71573 69.7157 0 78 0H196C204.284 0 211 6.71573 211 15V17C211 25.2843 204.284 32 196 32H63V15Z" fill="#AE3B5B"/>
<path d="M0.507812 27.6641C0.690104 26.1536 1.01562 24.7214 1.48438 23.3672C1.95312 21.987 2.52604 20.6589 3.20312 19.3828C3.88021 18.0807 4.63542 16.8047 5.46875 15.5547C6.30208 14.3047 7.1875 13.0417 8.125 11.7656C8.67188 11.0625 9.27083 10.3464 9.92188 9.61719C10.5729 8.88802 11.276 8.22396 12.0312 7.625C12.7865 7.02604 13.5938 6.54427 14.4531 6.17969C15.3385 5.78906 16.263 5.59375 17.2266 5.59375C17.7474 5.59375 18.151 5.63281 18.4375 5.71094C18.724 5.76302 18.9323 5.89323 19.0625 6.10156C19.2188 6.28385 19.3099 6.55729 19.3359 6.92188C19.362 7.28646 19.362 7.75521 19.3359 8.32812C19.3359 8.97917 19.2188 9.64323 18.9844 10.3203C18.75 10.9974 18.4245 11.6354 18.0078 12.2344C17.5911 12.8333 17.0964 13.3672 16.5234 13.8359C15.9505 14.2786 15.3385 14.6042 14.6875 14.8125V14.2656C14.6875 13.7188 14.8047 13.1979 15.0391 12.7031C15.2995 12.2083 15.5859 11.7135 15.8984 11.2188C16.2109 10.6979 16.4844 10.1641 16.7188 9.61719C16.9792 9.07031 17.1094 8.48438 17.1094 7.85938C16.8229 7.85938 16.5755 7.84635 16.3672 7.82031C16.1589 7.76823 15.9635 7.74219 15.7812 7.74219C15.625 7.71615 15.4557 7.74219 15.2734 7.82031C15.1172 7.8724 14.9219 8.0026 14.6875 8.21094C13.4115 9.2526 12.0964 10.4766 10.7422 11.8828C9.41406 13.263 8.20312 14.7604 7.10938 16.375C6.01562 17.9896 5.11719 19.6823 4.41406 21.4531C3.73698 23.1979 3.39844 24.9557 3.39844 26.7266C3.39844 26.8047 3.39844 26.9349 3.39844 27.1172C3.42448 27.2995 3.4375 27.4818 3.4375 27.6641C3.46354 27.8464 3.48958 28.0156 3.51562 28.1719C3.54167 28.3281 3.55469 28.4193 3.55469 28.4453C3.84115 28.7318 4.17969 28.901 4.57031 28.9531C4.98698 29.0052 5.29948 29.0312 5.50781 29.0312C6.6276 29.0312 7.66927 28.8359 8.63281 28.4453C9.6224 28.0547 10.5859 27.638 11.5234 27.1953C12.4609 26.7266 13.3984 26.2969 14.3359 25.9062C15.2995 25.5156 16.3151 25.3203 17.3828 25.3203C17.3828 25.737 17.1354 26.2057 16.6406 26.7266C16.1719 27.2214 15.5469 27.7161 14.7656 28.2109C14.0104 28.7057 13.1641 29.1875 12.2266 29.6562C11.2891 30.099 10.3646 30.5026 9.45312 30.8672C8.56771 31.2318 7.7474 31.5182 6.99219 31.7266C6.26302 31.9349 5.70312 32.0391 5.3125 32.0391C4.73958 32.0391 4.16667 31.9349 3.59375 31.7266C3.02083 31.4922 2.5 31.1797 2.03125 30.7891C1.58854 30.3984 1.22396 29.9427 0.9375 29.4219C0.651042 28.875 0.507812 28.2891 0.507812 27.6641ZM43.0469 30.2422C43.0469 29.5911 43.0859 28.9401 43.1641 28.2891C43.2682 27.638 43.3724 27 43.4766 26.375C43.6068 25.724 43.7109 25.0729 43.7891 24.4219C43.8932 23.7448 43.9453 23.0677 43.9453 22.3906C43.0859 22.3906 42.3438 22.4297 41.7188 22.5078C41.0938 22.5859 40.4818 22.6641 39.8828 22.7422C39.2839 22.8203 38.6458 22.8854 37.9688 22.9375C37.2917 22.9635 36.4714 22.9505 35.5078 22.8984C34.8047 23.6797 33.9974 24.513 33.0859 25.3984C32.2005 26.2839 31.25 27.1042 30.2344 27.8594C29.2188 28.6146 28.151 29.2526 27.0312 29.7734C25.9115 30.2682 24.7786 30.5156 23.6328 30.5156C22.8516 30.5156 22.0964 30.3854 21.3672 30.125C20.6641 29.8646 20.0391 29.5 19.4922 29.0312C18.9453 28.5625 18.5156 28.0026 18.2031 27.3516C17.8906 26.6745 17.7344 25.9323 17.7344 25.125C17.7344 24.7083 17.7995 24.3958 17.9297 24.1875C18.0859 23.9531 18.3984 23.8359 18.8672 23.8359C19.1016 23.8359 19.3099 24.0573 19.4922 24.5C19.6745 24.9167 19.9089 25.3984 20.1953 25.9453C20.5078 26.4661 20.8984 26.9479 21.3672 27.3906C21.8359 27.8073 22.474 28.0156 23.2812 28.0156C24.2708 28.0156 25.2344 27.8333 26.1719 27.4688C27.1354 27.0781 28.0469 26.5964 28.9062 26.0234C29.7917 25.4245 30.612 24.7604 31.3672 24.0312C32.1484 23.3021 32.8516 22.5859 33.4766 21.8828C33.3984 21.2318 33.1641 20.75 32.7734 20.4375C32.3828 20.125 31.9661 19.8125 31.5234 19.5C31.1068 19.1875 30.7292 18.7708 30.3906 18.25C30.0521 17.7292 29.8828 16.9089 29.8828 15.7891C29.8828 14.2005 30.3646 12.9635 31.3281 12.0781C32.2917 11.1667 33.6068 10.7109 35.2734 10.7109C35.7682 10.7109 36.25 10.763 36.7188 10.8672C37.2135 10.9714 37.7083 11.1016 38.2031 11.2578C38.6979 11.388 39.1797 11.5052 39.6484 11.6094C40.1432 11.7135 40.638 11.7656 41.1328 11.7656C41.4453 11.7656 41.6927 11.7266 41.875 11.6484C42.0833 11.5703 42.2656 11.4531 42.4219 11.2969C42.5781 11.1406 42.7474 10.9323 42.9297 10.6719C43.112 10.4115 43.3464 10.099 43.6328 9.73438C43.7891 9.52604 44.0234 9.20052 44.3359 8.75781C44.6745 8.28906 45.0391 7.78125 45.4297 7.23438C45.8203 6.66146 46.237 6.0625 46.6797 5.4375C47.1224 4.8125 47.5391 4.21354 47.9297 3.64062C48.3203 3.06771 48.6719 2.5599 48.9844 2.11719C49.2969 1.67448 49.5182 1.33594 49.6484 1.10156C49.9349 0.867188 50.1953 0.723958 50.4297 0.671875C50.6641 0.59375 50.9375 0.554688 51.25 0.554688C51.5625 0.554688 51.7969 0.671875 51.9531 0.90625C52.1094 1.11458 52.2005 1.375 52.2266 1.6875C52.2786 2 52.2917 2.32552 52.2656 2.66406C52.2656 2.97656 52.2656 3.22396 52.2656 3.40625C52.2656 3.48438 52.2656 3.61458 52.2656 3.79688C52.2656 3.95312 52.2526 4.1224 52.2266 4.30469C52.2266 4.48698 52.2266 4.66927 52.2266 4.85156C52.2266 5.00781 52.2266 5.11198 52.2266 5.16406C52.1484 5.42448 52.0182 5.8151 51.8359 6.33594C51.6797 6.85677 51.4974 7.45573 51.2891 8.13281C51.0807 8.78385 50.8594 9.47396 50.625 10.2031C50.4167 10.9323 50.2083 11.6354 50 12.3125C49.8177 12.9896 49.6484 13.5885 49.4922 14.1094C49.3359 14.6302 49.2318 15.0208 49.1797 15.2812C49.1536 15.4115 49.1146 15.6198 49.0625 15.9062C49.0104 16.1927 48.9583 16.5052 48.9062 16.8438C48.8542 17.1562 48.8021 17.4557 48.75 17.7422C48.6979 18.0286 48.6719 18.224 48.6719 18.3281C48.9062 18.3802 49.1406 18.4583 49.375 18.5625C49.6094 18.6667 49.7266 18.8359 49.7266 19.0703C49.7266 19.3307 49.6224 19.5391 49.4141 19.6953C49.2318 19.8516 49.0104 19.9948 48.75 20.125C48.4896 20.2552 48.2422 20.4115 48.0078 20.5938C47.7995 20.776 47.6823 21.0365 47.6562 21.375C47.6042 21.6875 47.513 22.2604 47.3828 23.0938C47.2526 23.901 47.0964 24.7734 46.9141 25.7109C46.7578 26.6224 46.6016 27.4818 46.4453 28.2891C46.3151 29.0964 46.2109 29.6562 46.1328 29.9688C46.1068 30.0469 46.0547 30.1901 45.9766 30.3984C45.8984 30.6068 45.8073 30.8151 45.7031 31.0234C45.599 31.2318 45.4948 31.4271 45.3906 31.6094C45.2865 31.7917 45.2083 31.9219 45.1562 32C44.5312 31.8698 44.0234 31.7135 43.6328 31.5312C43.2422 31.3229 43.0469 30.8932 43.0469 30.2422ZM42.3828 15.2422C42.0703 15.2422 41.6276 15.4635 41.0547 15.9062C40.5078 16.349 39.9609 16.8698 39.4141 17.4688C38.8672 18.0417 38.3854 18.6276 37.9688 19.2266C37.5521 19.7995 37.3438 20.2292 37.3438 20.5156C37.5 20.5156 37.7995 20.5156 38.2422 20.5156C38.7109 20.4896 39.1927 20.4766 39.6875 20.4766C40.2083 20.4505 40.6901 20.4245 41.1328 20.3984C41.6016 20.3724 41.9271 20.3594 42.1094 20.3594C42.2135 20.3594 42.3698 20.3333 42.5781 20.2812C42.8125 20.2292 43.0339 20.1771 43.2422 20.125C43.4505 20.0729 43.6328 20.0208 43.7891 19.9688C43.9714 19.9167 44.0755 19.8776 44.1016 19.8516C44.1276 19.8516 44.1406 19.7734 44.1406 19.6172C44.1406 19.4349 44.1406 19.2917 44.1406 19.1875C44.1406 18.9792 44.1016 18.6536 44.0234 18.2109C43.9714 17.7682 43.8672 17.3255 43.7109 16.8828C43.5807 16.4401 43.3984 16.0625 43.1641 15.75C42.9557 15.4115 42.6953 15.2422 42.3828 15.2422ZM31.4062 15.2812C31.4062 15.6458 31.5365 16.0625 31.7969 16.5312C32.0573 17 32.3828 17.4427 32.7734 17.8594C33.1641 18.276 33.5807 18.6276 34.0234 18.9141C34.4661 19.2005 34.8828 19.3438 35.2734 19.3438C35.638 19.3438 36.0677 19.1224 36.5625 18.6797C37.0573 18.237 37.526 17.7292 37.9688 17.1562C38.4375 16.5573 38.8281 15.9844 39.1406 15.4375C39.4531 14.8906 39.6094 14.513 39.6094 14.3047C39.6094 13.862 39.4531 13.5365 39.1406 13.3281C38.8542 13.0938 38.5026 12.9375 38.0859 12.8594C37.6953 12.7552 37.2786 12.7031 36.8359 12.7031C36.3932 12.7031 36.0286 12.7031 35.7422 12.7031C35.3776 12.7031 34.9349 12.7422 34.4141 12.8203C33.9193 12.8724 33.4505 12.9896 33.0078 13.1719C32.5651 13.3542 32.1875 13.6146 31.875 13.9531C31.5625 14.2917 31.4062 14.7344 31.4062 15.2812ZM43.125 13.2891C43.6979 13.9661 44.2318 14.6953 44.7266 15.4766C45.2214 16.2578 45.6901 17.0521 46.1328 17.8594L49.6094 5.35938L43.125 13.2891Z" fill="#AE3B5B"/>
<path d="M81.44 26V12H84.84V23H93.88V26H81.44ZM97.4841 26L104.444 12H107.644L114.564 26H111.044L106.904 17.7C106.757 17.4067 106.624 17.1333 106.504 16.88C106.384 16.6133 106.271 16.36 106.164 16.12C106.057 15.8667 105.957 15.62 105.864 15.38C105.784 15.1267 105.697 14.8667 105.604 14.6L106.384 14.58C106.291 14.86 106.191 15.1333 106.084 15.4C105.991 15.6533 105.884 15.9067 105.764 16.16C105.657 16.4133 105.544 16.6733 105.424 16.94C105.304 17.1933 105.177 17.4533 105.044 17.72L100.924 26H97.4841ZM100.704 23.52L101.824 20.96H110.204L110.664 23.52H100.704ZM122.395 26V15H116.835V12H131.455V15H125.795V26H122.395ZM137.231 26V23H140.991V15H137.231V12H148.171V15H144.391V23H148.171V26H137.231ZM155.444 26V12H158.684L168.824 22L168.364 21.9C168.284 21.3933 168.217 20.9067 168.164 20.44C168.124 19.9733 168.091 19.5267 168.064 19.1C168.037 18.6733 168.017 18.26 168.004 17.86C167.991 17.46 167.977 17.06 167.964 16.66C167.964 16.26 167.964 15.86 167.964 15.46V12H171.264V26H167.984L157.524 15.68L158.344 15.82C158.384 16.02 158.417 16.2467 158.444 16.5C158.484 16.7533 158.517 17.04 158.544 17.36C158.584 17.68 158.617 18.04 158.644 18.44C158.684 18.8267 158.711 19.26 158.724 19.74C158.737 20.22 158.744 20.7467 158.744 21.32V26H155.444ZM186.039 26.2C184.719 26.2 183.519 26.02 182.439 25.66C181.359 25.2867 180.426 24.7733 179.639 24.12C178.853 23.4533 178.239 22.68 177.799 21.8C177.373 20.92 177.159 19.9667 177.159 18.94C177.159 17.9133 177.373 16.96 177.799 16.08C178.239 15.2 178.853 14.4333 179.639 13.78C180.439 13.1133 181.373 12.6 182.439 12.24C183.519 11.8667 184.713 11.68 186.019 11.68C187.313 11.68 188.499 11.8667 189.579 12.24C190.659 12.6 191.593 13.1133 192.379 13.78C193.166 14.4333 193.773 15.2 194.199 16.08C194.639 16.96 194.859 17.9133 194.859 18.94C194.859 19.9667 194.639 20.92 194.199 21.8C193.773 22.68 193.166 23.4533 192.379 24.12C191.593 24.7733 190.659 25.2867 189.579 25.66C188.499 26.02 187.319 26.2 186.039 26.2ZM186.019 23C186.806 23 187.526 22.9 188.179 22.7C188.846 22.4867 189.419 22.2 189.899 21.84C190.379 21.4667 190.746 21.0333 190.999 20.54C191.266 20.0467 191.399 19.5133 191.399 18.94C191.399 18.3667 191.266 17.8333 190.999 17.34C190.746 16.8467 190.379 16.42 189.899 16.06C189.419 15.6867 188.846 15.4 188.179 15.2C187.526 14.9867 186.806 14.88 186.019 14.88C185.233 14.88 184.506 14.9867 183.839 15.2C183.186 15.4 182.613 15.6867 182.119 16.06C181.639 16.42 181.273 16.8467 181.019 17.34C180.766 17.8333 180.639 18.3667 180.639 18.94C180.639 19.5133 180.766 20.0467 181.019 20.54C181.273 21.0333 181.639 21.4667 182.119 21.84C182.613 22.2 183.186 22.4867 183.839 22.7C184.506 22.9 185.233 23 186.019 23Z" fill="#FDFDFD"/>
<path d="M5.772 51.12C4.956 51.12 4.228 50.976 3.588 50.688C2.956 50.4 2.46 50.008 2.1 49.512C1.74 49.008 1.56 48.44 1.56 47.808C1.56 47.168 1.736 46.6 2.088 46.104C2.448 45.608 2.936 45.216 3.552 44.928C4.168 44.64 4.864 44.496 5.64 44.496C6.384 44.496 7.072 44.592 7.704 44.784C8.336 44.968 8.868 45.236 9.3 45.588L8.232 47.004C8.04 46.852 7.808 46.712 7.536 46.584C7.272 46.456 6.992 46.356 6.696 46.284C6.4 46.204 6.1 46.164 5.796 46.164C5.332 46.164 4.932 46.236 4.596 46.38C4.26 46.516 4.004 46.708 3.828 46.956C3.652 47.196 3.564 47.48 3.564 47.808C3.564 48.12 3.656 48.404 3.84 48.66C4.024 48.908 4.28 49.1 4.608 49.236C4.944 49.372 5.332 49.44 5.772 49.44C6.172 49.44 6.524 49.408 6.828 49.344C7.14 49.28 7.412 49.2 7.644 49.104C7.876 49.008 8.08 48.916 8.256 48.828L9.288 50.208C8.816 50.464 8.292 50.68 7.716 50.856C7.14 51.032 6.492 51.12 5.772 51.12ZM13.2538 51V42.12H15.1738V51H13.2538ZM20.2639 51V44.628H22.1839V51H20.2639ZM21.2119 43.248C20.8519 43.248 20.5719 43.164 20.3719 42.996C20.1719 42.82 20.0719 42.572 20.0719 42.252C20.0719 41.964 20.1719 41.728 20.3719 41.544C20.5799 41.36 20.8599 41.268 21.2119 41.268C21.5719 41.268 21.8519 41.356 22.0519 41.532C22.2599 41.7 22.3639 41.94 22.3639 42.252C22.3639 42.548 22.2599 42.788 22.0519 42.972C21.8439 43.156 21.5639 43.248 21.2119 43.248ZM27.1617 51V44.628H28.9857L29.0457 46.26L28.5537 46.032C28.6897 45.856 28.8577 45.68 29.0577 45.504C29.2577 45.32 29.4897 45.156 29.7537 45.012C30.0177 44.86 30.3177 44.74 30.6537 44.652C30.9977 44.556 31.3817 44.508 31.8057 44.508C32.1977 44.508 32.5617 44.568 32.8977 44.688C33.2417 44.8 33.5337 44.992 33.7737 45.264C34.0217 45.528 34.1937 45.884 34.2897 46.332L33.7497 46.26L33.8577 46.068C34.0097 45.9 34.1897 45.724 34.3977 45.54C34.6137 45.356 34.8577 45.188 35.1297 45.036C35.4017 44.876 35.7057 44.748 36.0417 44.652C36.3777 44.556 36.7417 44.508 37.1337 44.508C37.8457 44.508 38.4097 44.636 38.8257 44.892C39.2417 45.14 39.5417 45.472 39.7257 45.888C39.9097 46.304 40.0017 46.752 40.0017 47.232V51H38.0697V47.508C38.0697 47.252 38.0217 47.02 37.9257 46.812C37.8377 46.604 37.6897 46.44 37.4817 46.32C37.2817 46.192 37.0217 46.128 36.7017 46.128C36.3897 46.128 36.1017 46.176 35.8377 46.272C35.5817 46.368 35.3537 46.5 35.1537 46.668C34.9617 46.828 34.8097 47.016 34.6977 47.232C34.5937 47.448 34.5417 47.68 34.5417 47.928V51H32.6097V47.496C32.6097 47.232 32.5537 47 32.4417 46.8C32.3297 46.592 32.1497 46.428 31.9017 46.308C31.6617 46.188 31.3457 46.128 30.9537 46.128C30.6737 46.128 30.4177 46.18 30.1857 46.284C29.9617 46.388 29.7657 46.524 29.5977 46.692C29.4377 46.852 29.3137 47.02 29.2257 47.196C29.1377 47.372 29.0937 47.532 29.0937 47.676V51H27.1617ZM47.4516 51.108C46.6836 51.108 46.0196 50.968 45.4596 50.688C44.9076 50.408 44.4796 50.02 44.1756 49.524C43.8796 49.028 43.7316 48.46 43.7316 47.82C43.7316 47.172 43.8876 46.6 44.1996 46.104C44.5116 45.6 44.9476 45.208 45.5076 44.928C46.0676 44.64 46.7236 44.496 47.4756 44.496C47.9156 44.496 48.3236 44.548 48.6996 44.652C49.0756 44.748 49.4076 44.876 49.6956 45.036C49.9836 45.196 50.2116 45.368 50.3796 45.552C50.5476 45.728 50.6476 45.9 50.6796 46.068L50.1996 46.14V44.628H52.0956V51H50.1636V49.224L50.5476 49.392C50.5316 49.584 50.4356 49.78 50.2596 49.98C50.0916 50.18 49.8676 50.368 49.5876 50.544C49.3076 50.712 48.9836 50.848 48.6156 50.952C48.2476 51.056 47.8596 51.108 47.4516 51.108ZM47.9316 49.488C48.4036 49.488 48.8076 49.42 49.1436 49.284C49.4876 49.14 49.7516 48.944 49.9356 48.696C50.1276 48.44 50.2236 48.148 50.2236 47.82C50.2236 47.484 50.1276 47.192 49.9356 46.944C49.7516 46.696 49.4876 46.5 49.1436 46.356C48.8076 46.204 48.4036 46.128 47.9316 46.128C47.4756 46.128 47.0756 46.204 46.7316 46.356C46.3876 46.5 46.1196 46.696 45.9276 46.944C45.7356 47.192 45.6396 47.484 45.6396 47.82C45.6396 48.148 45.7356 48.44 45.9276 48.696C46.1196 48.944 46.3876 49.14 46.7316 49.284C47.0756 49.42 47.4756 49.488 47.9316 49.488ZM57.7328 51V42.66H59.6528V51H57.7328ZM55.8848 46.308V44.628H61.8488V46.308H55.8848ZM69.3705 51.12C68.4825 51.12 67.7025 50.98 67.0305 50.7C66.3665 50.412 65.8505 50.02 65.4825 49.524C65.1145 49.028 64.9305 48.468 64.9305 47.844C64.9305 47.324 65.0425 46.86 65.2665 46.452C65.4905 46.036 65.7945 45.684 66.1785 45.396C66.5705 45.108 67.0185 44.888 67.5225 44.736C68.0345 44.576 68.5705 44.496 69.1305 44.496C69.6985 44.496 70.2225 44.576 70.7025 44.736C71.1905 44.888 71.6145 45.108 71.9745 45.396C72.3425 45.676 72.6265 46.012 72.8265 46.404C73.0265 46.796 73.1185 47.232 73.1025 47.712L73.0905 48.3H66.3345L66.0585 47.1H71.5305L71.3265 47.376V47.136C71.2945 46.92 71.1745 46.732 70.9665 46.572C70.7665 46.404 70.5065 46.272 70.1865 46.176C69.8745 46.08 69.5305 46.032 69.1545 46.032C68.7225 46.032 68.3225 46.088 67.9545 46.2C67.5865 46.312 67.2905 46.492 67.0665 46.74C66.8425 46.98 66.7305 47.3 66.7305 47.7C66.7305 48.044 66.8505 48.356 67.0905 48.636C67.3385 48.908 67.6825 49.124 68.1225 49.284C68.5705 49.444 69.0945 49.524 69.6945 49.524C70.3025 49.524 70.7945 49.46 71.1705 49.332C71.5465 49.196 71.8265 49.08 72.0105 48.984L72.8265 50.208C72.5305 50.392 72.1985 50.556 71.8305 50.7C71.4625 50.836 71.0705 50.94 70.6545 51.012C70.2385 51.084 69.8105 51.12 69.3705 51.12ZM90.1912 51L89.4472 50.244L88.5592 49.476L86.4352 47.712C86.1072 47.448 85.7992 47.188 85.5112 46.932C85.2232 46.668 84.9672 46.408 84.7432 46.152C84.5192 45.888 84.3432 45.624 84.2152 45.36C84.0872 45.096 84.0232 44.836 84.0232 44.58C84.0232 44.244 84.1472 43.908 84.3952 43.572C84.6432 43.228 84.9992 42.94 85.4632 42.708C85.9352 42.476 86.4992 42.36 87.1552 42.36C87.7712 42.36 88.3152 42.44 88.7872 42.6C89.2672 42.752 89.6752 42.96 90.0112 43.224C90.3552 43.48 90.6272 43.772 90.8272 44.1L89.3752 45.24C89.1112 44.84 88.7872 44.54 88.4032 44.34C88.0192 44.14 87.6432 44.04 87.2752 44.04C87.0672 44.04 86.8792 44.064 86.7112 44.112C86.5512 44.152 86.4232 44.22 86.3272 44.316C86.2392 44.404 86.1952 44.516 86.1952 44.652C86.1952 44.772 86.2432 44.904 86.3392 45.048C86.4352 45.192 86.5592 45.34 86.7112 45.492C86.8712 45.644 87.0392 45.792 87.2152 45.936C87.3992 46.08 87.5712 46.216 87.7312 46.344L90.0712 48.312L90.7792 48.972L92.9032 51H90.1912ZM86.6992 51.192C85.7712 51.192 85.0072 51.068 84.4072 50.82C83.8152 50.564 83.3752 50.232 83.0872 49.824C82.7992 49.408 82.6552 48.96 82.6552 48.48C82.6552 47.968 82.8432 47.476 83.2192 47.004C83.6032 46.532 84.1872 46.148 84.9712 45.852L86.2312 46.956C85.6712 47.1 85.2872 47.296 85.0792 47.544C84.8712 47.792 84.7672 48.04 84.7672 48.288C84.7672 48.48 84.8232 48.668 84.9352 48.852C85.0552 49.028 85.2592 49.172 85.5472 49.284C85.8352 49.396 86.2312 49.452 86.7352 49.452C87.0072 49.452 87.3112 49.412 87.6472 49.332C87.9912 49.244 88.3112 49.104 88.6072 48.912C88.9112 48.712 89.1552 48.444 89.3392 48.108C89.5312 47.772 89.6152 47.352 89.5912 46.848H91.6192C91.6112 47.448 91.5032 47.984 91.2952 48.456C91.0952 48.92 90.8232 49.324 90.4792 49.668C90.1432 50.012 89.7592 50.296 89.3272 50.52C88.9032 50.744 88.4632 50.912 88.0072 51.024C87.5592 51.136 87.1232 51.192 86.6992 51.192ZM102.551 51V42.12H104.435V46.404L103.859 46.584C103.947 46.216 104.139 45.876 104.435 45.564C104.739 45.244 105.119 44.988 105.575 44.796C106.031 44.596 106.527 44.496 107.063 44.496C107.703 44.496 108.239 44.624 108.671 44.88C109.111 45.128 109.439 45.46 109.655 45.876C109.879 46.284 109.991 46.728 109.991 47.208V51H108.071V47.724C108.071 47.388 107.995 47.1 107.843 46.86C107.699 46.62 107.499 46.436 107.243 46.308C106.995 46.172 106.703 46.104 106.367 46.104C106.087 46.104 105.831 46.152 105.599 46.248C105.367 46.344 105.167 46.476 104.999 46.644C104.831 46.804 104.699 46.988 104.603 47.196C104.515 47.396 104.471 47.608 104.471 47.832V51H103.511C103.191 51 102.951 51 102.791 51C102.631 51 102.551 51 102.551 51ZM118.238 51.12C117.35 51.12 116.57 50.98 115.898 50.7C115.234 50.412 114.718 50.02 114.35 49.524C113.982 49.028 113.798 48.468 113.798 47.844C113.798 47.324 113.91 46.86 114.134 46.452C114.358 46.036 114.662 45.684 115.046 45.396C115.438 45.108 115.886 44.888 116.39 44.736C116.902 44.576 117.438 44.496 117.998 44.496C118.566 44.496 119.09 44.576 119.57 44.736C120.058 44.888 120.482 45.108 120.842 45.396C121.21 45.676 121.494 46.012 121.694 46.404C121.894 46.796 121.986 47.232 121.97 47.712L121.958 48.3H115.202L114.926 47.1H120.398L120.194 47.376V47.136C120.162 46.92 120.042 46.732 119.834 46.572C119.634 46.404 119.374 46.272 119.054 46.176C118.742 46.08 118.398 46.032 118.022 46.032C117.59 46.032 117.19 46.088 116.822 46.2C116.454 46.312 116.158 46.492 115.934 46.74C115.71 46.98 115.598 47.3 115.598 47.7C115.598 48.044 115.718 48.356 115.958 48.636C116.206 48.908 116.55 49.124 116.99 49.284C117.438 49.444 117.962 49.524 118.562 49.524C119.17 49.524 119.662 49.46 120.038 49.332C120.414 49.196 120.694 49.08 120.878 48.984L121.694 50.208C121.398 50.392 121.066 50.556 120.698 50.7C120.33 50.836 119.938 50.94 119.522 51.012C119.106 51.084 118.678 51.12 118.238 51.12ZM128.698 51.108C127.93 51.108 127.266 50.968 126.706 50.688C126.154 50.408 125.726 50.02 125.422 49.524C125.126 49.028 124.978 48.46 124.978 47.82C124.978 47.172 125.134 46.6 125.446 46.104C125.758 45.6 126.194 45.208 126.754 44.928C127.314 44.64 127.97 44.496 128.722 44.496C129.162 44.496 129.57 44.548 129.946 44.652C130.322 44.748 130.654 44.876 130.942 45.036C131.23 45.196 131.458 45.368 131.626 45.552C131.794 45.728 131.894 45.9 131.926 46.068L131.446 46.14V44.628H133.342V51H131.41V49.224L131.794 49.392C131.778 49.584 131.682 49.78 131.506 49.98C131.338 50.18 131.114 50.368 130.834 50.544C130.554 50.712 130.23 50.848 129.862 50.952C129.494 51.056 129.106 51.108 128.698 51.108ZM129.178 49.488C129.65 49.488 130.054 49.42 130.39 49.284C130.734 49.14 130.998 48.944 131.182 48.696C131.374 48.44 131.47 48.148 131.47 47.82C131.47 47.484 131.374 47.192 131.182 46.944C130.998 46.696 130.734 46.5 130.39 46.356C130.054 46.204 129.65 46.128 129.178 46.128C128.722 46.128 128.322 46.204 127.978 46.356C127.634 46.5 127.366 46.696 127.174 46.944C126.982 47.192 126.886 47.484 126.886 47.82C126.886 48.148 126.982 48.44 127.174 48.696C127.366 48.944 127.634 49.14 127.978 49.284C128.322 49.42 128.722 49.488 129.178 49.488ZM138.211 51V42.12H140.131V51H138.211ZM145.858 51V42.66H147.778V51H145.858ZM144.01 46.308V44.628H149.974V46.308H144.01ZM154.254 51V42.12H156.138V46.404L155.562 46.584C155.65 46.216 155.842 45.876 156.138 45.564C156.442 45.244 156.822 44.988 157.278 44.796C157.734 44.596 158.23 44.496 158.766 44.496C159.406 44.496 159.942 44.624 160.374 44.88C160.814 45.128 161.142 45.46 161.358 45.876C161.582 46.284 161.694 46.728 161.694 47.208V51H159.774V47.724C159.774 47.388 159.698 47.1 159.546 46.86C159.402 46.62 159.202 46.436 158.946 46.308C158.698 46.172 158.406 46.104 158.07 46.104C157.79 46.104 157.534 46.152 157.302 46.248C157.07 46.344 156.87 46.476 156.702 46.644C156.534 46.804 156.402 46.988 156.306 47.196C156.218 47.396 156.174 47.608 156.174 47.832V51H155.214C154.894 51 154.654 51 154.494 51C154.334 51 154.254 51 154.254 51ZM4.956 66.132C4.22 66.132 3.584 65.992 3.048 65.712C2.512 65.432 2.096 65.04 1.8 64.536C1.512 64.032 1.368 63.46 1.368 62.82C1.368 62.172 1.524 61.6 1.836 61.104C2.148 60.6 2.584 60.208 3.144 59.928C3.704 59.64 4.352 59.496 5.088 59.496C5.528 59.496 5.932 59.544 6.3 59.64C6.676 59.736 7.004 59.864 7.284 60.024C7.564 60.176 7.788 60.348 7.956 60.54C8.124 60.732 8.22 60.924 8.244 61.116L7.788 61.224V57.12H9.72V66H7.932L7.824 64.308L8.208 64.464C8.184 64.656 8.08 64.852 7.896 65.052C7.72 65.252 7.484 65.432 7.188 65.592C6.892 65.752 6.552 65.884 6.168 65.988C5.792 66.084 5.388 66.132 4.956 66.132ZM5.556 64.464C6.02 64.464 6.424 64.396 6.768 64.26C7.112 64.116 7.376 63.92 7.56 63.672C7.744 63.424 7.836 63.14 7.836 62.82C7.836 62.492 7.744 62.208 7.56 61.968C7.376 61.72 7.112 61.528 6.768 61.392C6.424 61.248 6.02 61.176 5.556 61.176C5.1 61.176 4.7 61.248 4.356 61.392C4.02 61.528 3.756 61.72 3.564 61.968C3.372 62.208 3.276 62.492 3.276 62.82C3.276 63.14 3.372 63.424 3.564 63.672C3.756 63.92 4.02 64.116 4.356 64.26C4.7 64.396 5.1 64.464 5.556 64.464ZM16.9125 66.108C16.1445 66.108 15.4805 65.968 14.9205 65.688C14.3685 65.408 13.9405 65.02 13.6365 64.524C13.3405 64.028 13.1925 63.46 13.1925 62.82C13.1925 62.172 13.3485 61.6 13.6605 61.104C13.9725 60.6 14.4085 60.208 14.9685 59.928C15.5285 59.64 16.1845 59.496 16.9365 59.496C17.3765 59.496 17.7845 59.548 18.1605 59.652C18.5365 59.748 18.8685 59.876 19.1565 60.036C19.4445 60.196 19.6725 60.368 19.8405 60.552C20.0085 60.728 20.1085 60.9 20.1405 61.068L19.6605 61.14V59.628H21.5565V66H19.6245V64.224L20.0085 64.392C19.9925 64.584 19.8965 64.78 19.7205 64.98C19.5525 65.18 19.3285 65.368 19.0485 65.544C18.7685 65.712 18.4445 65.848 18.0765 65.952C17.7085 66.056 17.3205 66.108 16.9125 66.108ZM17.3925 64.488C17.8645 64.488 18.2685 64.42 18.6045 64.284C18.9485 64.14 19.2125 63.944 19.3965 63.696C19.5885 63.44 19.6845 63.148 19.6845 62.82C19.6845 62.484 19.5885 62.192 19.3965 61.944C19.2125 61.696 18.9485 61.5 18.6045 61.356C18.2685 61.204 17.8645 61.128 17.3925 61.128C16.9365 61.128 16.5365 61.204 16.1925 61.356C15.8485 61.5 15.5805 61.696 15.3885 61.944C15.1965 62.192 15.1005 62.484 15.1005 62.82C15.1005 63.148 15.1965 63.44 15.3885 63.696C15.5805 63.944 15.8485 64.14 16.1925 64.284C16.5365 64.42 16.9365 64.488 17.3925 64.488ZM29.2577 66.12C28.4257 66.12 27.6737 66.02 27.0017 65.82C26.3377 65.62 25.7937 65.312 25.3697 64.896L26.5457 63.828C26.8417 64.092 27.2257 64.308 27.6977 64.476C28.1777 64.636 28.7217 64.716 29.3297 64.716C29.5057 64.716 29.6777 64.708 29.8457 64.692C30.0217 64.676 30.1817 64.648 30.3257 64.608C30.4697 64.56 30.5857 64.5 30.6737 64.428C30.7617 64.356 30.8057 64.268 30.8057 64.164C30.8057 63.996 30.6657 63.872 30.3857 63.792C30.1857 63.736 29.9457 63.692 29.6657 63.66C29.3857 63.62 29.1177 63.584 28.8617 63.552C28.3257 63.472 27.8497 63.392 27.4337 63.312C27.0177 63.224 26.6617 63.092 26.3657 62.916C26.1257 62.756 25.9337 62.564 25.7897 62.34C25.6537 62.108 25.5857 61.82 25.5857 61.476C25.5857 61.164 25.6777 60.888 25.8617 60.648C26.0457 60.4 26.2977 60.192 26.6177 60.024C26.9377 59.848 27.3057 59.716 27.7217 59.628C28.1457 59.54 28.5937 59.496 29.0657 59.496C29.4897 59.496 29.9217 59.532 30.3617 59.604C30.8097 59.668 31.2337 59.772 31.6337 59.916C32.0417 60.052 32.3937 60.236 32.6897 60.468L31.7417 61.668C31.5257 61.524 31.2617 61.392 30.9497 61.272C30.6377 61.152 30.3017 61.056 29.9417 60.984C29.5817 60.912 29.2137 60.876 28.8377 60.876C28.6697 60.876 28.5017 60.884 28.3337 60.9C28.1737 60.908 28.0257 60.932 27.8897 60.972C27.7617 61.012 27.6537 61.064 27.5657 61.128C27.4777 61.192 27.4337 61.272 27.4337 61.368C27.4337 61.424 27.4537 61.48 27.4937 61.536C27.5337 61.584 27.5897 61.628 27.6617 61.668C27.8217 61.764 28.0497 61.84 28.3457 61.896C28.6497 61.944 28.9777 61.992 29.3297 62.04C29.9937 62.128 30.5537 62.24 31.0097 62.376C31.4737 62.512 31.8417 62.672 32.1137 62.856C32.3297 63 32.4857 63.168 32.5817 63.36C32.6857 63.544 32.7377 63.76 32.7377 64.008C32.7377 64.44 32.5897 64.812 32.2937 65.124C32.0057 65.436 31.6017 65.68 31.0817 65.856C30.5617 66.032 29.9537 66.12 29.2577 66.12ZM36.5393 66V57.12H38.4233V61.404L37.8473 61.584C37.9353 61.216 38.1273 60.876 38.4233 60.564C38.7273 60.244 39.1073 59.988 39.5633 59.796C40.0193 59.596 40.5153 59.496 41.0513 59.496C41.6913 59.496 42.2273 59.624 42.6593 59.88C43.0993 60.128 43.4273 60.46 43.6433 60.876C43.8673 61.284 43.9793 61.728 43.9793 62.208V66H42.0593V62.724C42.0593 62.388 41.9833 62.1 41.8313 61.86C41.6873 61.62 41.4873 61.436 41.2313 61.308C40.9833 61.172 40.6913 61.104 40.3553 61.104C40.0753 61.104 39.8193 61.152 39.5873 61.248C39.3553 61.344 39.1553 61.476 38.9873 61.644C38.8193 61.804 38.6873 61.988 38.5913 62.196C38.5033 62.396 38.4593 62.608 38.4593 62.832V66H37.4993C37.1793 66 36.9393 66 36.7793 66C36.6193 66 36.5393 66 36.5393 66ZM53.354 66.132C52.922 66.132 52.518 66.08 52.142 65.976C51.774 65.872 51.45 65.74 51.17 65.58C50.898 65.42 50.674 65.248 50.498 65.064C50.322 64.872 50.21 64.696 50.162 64.536L50.822 64.512L50.702 65.988H48.926V57.12H50.858V61.152L50.222 61.128C50.278 60.944 50.394 60.76 50.57 60.576C50.746 60.384 50.974 60.208 51.254 60.048C51.542 59.88 51.866 59.748 52.226 59.652C52.594 59.548 52.99 59.496 53.414 59.496C54.11 59.496 54.734 59.64 55.286 59.928C55.846 60.208 56.29 60.6 56.618 61.104C56.954 61.6 57.122 62.168 57.122 62.808C57.122 63.456 56.958 64.032 56.63 64.536C56.31 65.032 55.866 65.424 55.298 65.712C54.73 65.992 54.082 66.132 53.354 66.132ZM52.958 64.488C53.422 64.488 53.822 64.416 54.158 64.272C54.494 64.128 54.754 63.932 54.938 63.684C55.13 63.428 55.226 63.136 55.226 62.808C55.226 62.472 55.13 62.18 54.938 61.932C54.754 61.676 54.49 61.48 54.146 61.344C53.81 61.208 53.414 61.14 52.958 61.14C52.502 61.14 52.102 61.208 51.758 61.344C51.414 61.48 51.146 61.676 50.954 61.932C50.77 62.18 50.678 62.472 50.678 62.808C50.678 63.136 50.77 63.428 50.954 63.684C51.146 63.932 51.414 64.128 51.758 64.272C52.102 64.416 52.502 64.488 52.958 64.488ZM64.6515 66.12C63.7875 66.12 63.0235 65.98 62.3595 65.7C61.6955 65.412 61.1755 65.02 60.7995 64.524C60.4315 64.02 60.2475 63.448 60.2475 62.808C60.2475 62.16 60.4315 61.588 60.7995 61.092C61.1755 60.596 61.6955 60.208 62.3595 59.928C63.0235 59.64 63.7875 59.496 64.6515 59.496C65.5155 59.496 66.2755 59.64 66.9315 59.928C67.5875 60.208 68.0995 60.596 68.4675 61.092C68.8435 61.588 69.0315 62.16 69.0315 62.808C69.0315 63.448 68.8435 64.02 68.4675 64.524C68.0995 65.02 67.5875 65.412 66.9315 65.7C66.2755 65.98 65.5155 66.12 64.6515 66.12ZM64.6515 64.464C65.0995 64.464 65.5075 64.396 65.8755 64.26C66.2515 64.116 66.5475 63.92 66.7635 63.672C66.9875 63.424 67.0955 63.136 67.0875 62.808C67.0955 62.48 66.9875 62.192 66.7635 61.944C66.5475 61.688 66.2515 61.492 65.8755 61.356C65.5075 61.212 65.0995 61.14 64.6515 61.14C64.1955 61.14 63.7795 61.212 63.4035 61.356C63.0355 61.492 62.7395 61.684 62.5155 61.932C62.2995 62.18 62.1915 62.472 62.1915 62.808C62.1915 63.136 62.2995 63.424 62.5155 63.672C62.7395 63.92 63.0355 64.116 63.4035 64.26C63.7795 64.396 64.1955 64.464 64.6515 64.464ZM75.6938 66.108C74.9258 66.108 74.2618 65.968 73.7018 65.688C73.1498 65.408 72.7218 65.02 72.4178 64.524C72.1218 64.028 71.9738 63.46 71.9738 62.82C71.9738 62.172 72.1298 61.6 72.4418 61.104C72.7538 60.6 73.1898 60.208 73.7498 59.928C74.3098 59.64 74.9658 59.496 75.7178 59.496C76.1578 59.496 76.5658 59.548 76.9418 59.652C77.3178 59.748 77.6498 59.876 77.9378 60.036C78.2258 60.196 78.4538 60.368 78.6218 60.552C78.7898 60.728 78.8898 60.9 78.9218 61.068L78.4418 61.14V59.628H80.3378V66H78.4058V64.224L78.7898 64.392C78.7738 64.584 78.6778 64.78 78.5018 64.98C78.3338 65.18 78.1098 65.368 77.8298 65.544C77.5498 65.712 77.2258 65.848 76.8578 65.952C76.4898 66.056 76.1018 66.108 75.6938 66.108ZM76.1738 64.488C76.6458 64.488 77.0498 64.42 77.3858 64.284C77.7298 64.14 77.9938 63.944 78.1778 63.696C78.3698 63.44 78.4658 63.148 78.4658 62.82C78.4658 62.484 78.3698 62.192 78.1778 61.944C77.9938 61.696 77.7298 61.5 77.3858 61.356C77.0498 61.204 76.6458 61.128 76.1738 61.128C75.7178 61.128 75.3178 61.204 74.9738 61.356C74.6298 61.5 74.3618 61.696 74.1698 61.944C73.9778 62.192 73.8818 62.484 73.8818 62.82C73.8818 63.148 73.9778 63.44 74.1698 63.696C74.3618 63.944 74.6298 64.14 74.9738 64.284C75.3178 64.42 75.7178 64.488 76.1738 64.488ZM85.2189 66V59.628H87.0429L87.1269 62.016L86.5269 62.028C86.6549 61.556 86.8709 61.132 87.1749 60.756C87.4789 60.372 87.8389 60.068 88.2549 59.844C88.6709 59.612 89.1069 59.496 89.5629 59.496C89.8589 59.496 90.1469 59.528 90.4269 59.592C90.7149 59.656 90.9509 59.744 91.1349 59.856L90.6189 61.908C90.4509 61.788 90.2189 61.696 89.9229 61.632C89.6349 61.56 89.3509 61.524 89.0709 61.524C88.7589 61.524 88.4789 61.572 88.2309 61.668C87.9909 61.764 87.7869 61.892 87.6189 62.052C87.4589 62.212 87.3389 62.388 87.2589 62.58C87.1789 62.772 87.1389 62.968 87.1389 63.168V66H85.2189ZM97.2646 66.132C96.5286 66.132 95.8926 65.992 95.3566 65.712C94.8206 65.432 94.4046 65.04 94.1086 64.536C93.8206 64.032 93.6766 63.46 93.6766 62.82C93.6766 62.172 93.8326 61.6 94.1446 61.104C94.4566 60.6 94.8926 60.208 95.4526 59.928C96.0126 59.64 96.6606 59.496 97.3966 59.496C97.8366 59.496 98.2406 59.544 98.6086 59.64C98.9846 59.736 99.3126 59.864 99.5926 60.024C99.8726 60.176 100.097 60.348 100.265 60.54C100.433 60.732 100.529 60.924 100.553 61.116L100.097 61.224V57.12H102.029V66H100.241L100.133 64.308L100.517 64.464C100.493 64.656 100.389 64.852 100.205 65.052C100.029 65.252 99.7926 65.432 99.4966 65.592C99.2006 65.752 98.8606 65.884 98.4766 65.988C98.1006 66.084 97.6966 66.132 97.2646 66.132ZM97.8646 64.464C98.3286 64.464 98.7326 64.396 99.0766 64.26C99.4206 64.116 99.6846 63.92 99.8686 63.672C100.053 63.424 100.145 63.14 100.145 62.82C100.145 62.492 100.053 62.208 99.8686 61.968C99.6846 61.72 99.4206 61.528 99.0766 61.392C98.7326 61.248 98.3286 61.176 97.8646 61.176C97.4086 61.176 97.0086 61.248 96.6646 61.392C96.3286 61.528 96.0646 61.72 95.8726 61.968C95.6806 62.208 95.5846 62.492 95.5846 62.82C95.5846 63.14 95.6806 63.424 95.8726 63.672C96.0646 63.92 96.3286 64.116 96.6646 64.26C97.0086 64.396 97.4086 64.464 97.8646 64.464Z" fill="black"/>
</svg>
