<?xml version="1.0" encoding="utf-8" standalone="no"?>
<!DOCTYPE svg PUBLIC "-//W3C//DTD SVG 1.1//EN"
  "http://www.w3.org/Graphics/SVG/1.1/DTD/svg11.dtd">
<svg xmlns:xlink="http://www.w3.org/1999/xlink" width="374.695315pt" height="345.6pt" viewBox="0 0 374.695315 345.6" xmlns="http://www.w3.org/2000/svg" version="1.1">
 <metadata>
  <rdf:RDF xmlns:dc="http://purl.org/dc/elements/1.1/" xmlns:cc="http://creativecommons.org/ns#" xmlns:rdf="http://www.w3.org/1999/02/22-rdf-syntax-ns#">
   <cc:Work>
    <dc:type rdf:resource="http://purl.org/dc/dcmitype/StillImage"/>
    <dc:date>2025-04-12T01:31:34.322513</dc:date>
    <dc:format>image/svg+xml</dc:format>
    <dc:creator>
     <cc:Agent>
      <dc:title>Matplotlib v3.7.1, https://matplotlib.org/</dc:title>
     </cc:Agent>
    </dc:creator>
   </cc:Work>
  </rdf:RDF>
 </metadata>
 <defs>
  <style type="text/css">*{stroke-linejoin: round; stroke-linecap: butt}</style>
 </defs>
 <g id="figure_1">
  <g id="patch_1">
   <path d="M 0 345.6 
L 374.695315 345.6 
L 374.695315 0 
L 0 0 
z
" style="fill: #ffffff"/>
  </g>
  <g id="axes_1">
   <g id="patch_2">
    <path d="M 0 345.6 
L 374.695315 345.6 
L 374.695315 0 
L 0 0 
z
" style="fill: #212830"/>
   </g>
   <g id="patch_3">
    <path d="M 115.271246 43.082246 
L 115.245788 34.947175 
L 115.156173 23.450426 
L 114.899688 23.451294 
L 114.894518 17.685076 
L 115.209433 16.108343 
L 96.863543 15.894746 
L 84.428802 15.709091 
L 73.170432 15.885766 
L 62.28218 15.917239 
L 58.904012 15.731162 
L 52.216541 16.049792 
L 46.572531 15.996315 
L 45.869031 16.421996 
L 46.063346 17.506959 
L 44.974165 19.235383 
L 43.416658 19.972404 
L 42.444029 19.676692 
L 41.494153 21.153881 
L 40.402655 21.68292 
L 41.20288 24.569224 
L 41.849952 25.28743 
L 40.8736 26.996571 
L 40.775745 28.146107 
L 39.895516 29.439048 
L 41.147617 29.722006 
L 40.748106 30.694464 
L 42.106144 31.301014 
L 42.820582 33.504636 
L 43.452672 33.862016 
L 42.466572 35.914505 
L 41.816641 36.513297 
L 47.187707 36.499795 
L 48.021317 37.042832 
L 49.065095 40.851476 
L 48.648884 41.324282 
L 50.210198 43.208483 
L 51.269489 44.170218 
L 52.098468 43.789157 
L 54.673541 45.113861 
L 55.599278 46.585521 
L 56.997057 46.802624 
L 60.122455 46.676335 
L 61.900763 47.631335 
L 62.515617 49.044234 
L 64.311188 48.709067 
L 66.476354 49.381028 
L 67.004829 48.672773 
L 66.286339 46.794603 
L 64.864391 46.496713 
L 64.610507 45.503938 
L 65.884473 43.301697 
L 67.246536 42.456343 
L 69.972428 42.466658 
L 71.149697 41.516817 
L 72.881359 40.957071 
L 73.764445 40.041877 
L 75.509042 39.084641 
L 75.819897 38.22377 
L 77.380582 38.327436 
L 78.105065 37.028895 
L 79.159466 37.866008 
L 80.164887 37.792553 
L 79.561615 42.101817 
L 80.345409 43.053328 
L 94.545284 43.096391 
L 105.712338 43.104097 
L 115.271246 43.082246 
" clip-path="url(#p5f1a636571)" style="fill: #ffffff"/>
   </g>
   <g id="patch_4">
    <path d="M 46.572531 15.996315 
L 39.600101 16.119191 
L 30.54464 16.148683 
L 23.572413 16.070362 
L 24.060074 17.928925 
L 23.185135 21.483193 
L 22.100586 23.218824 
L 23.549046 24.310832 
L 24.999774 24.557591 
L 25.828187 25.66368 
L 25.99198 27.063338 
L 27.244985 29.232673 
L 27.9053 31.041355 
L 28.424598 33.774366 
L 38.185205 33.791227 
L 38.205974 36.553221 
L 41.816641 36.513297 
L 42.466572 35.914505 
L 43.452672 33.862016 
L 42.820582 33.504636 
L 42.106144 31.301014 
L 40.748106 30.694464 
L 41.147617 29.722006 
L 39.895516 29.439048 
L 40.775745 28.146107 
L 40.8736 26.996571 
L 41.849952 25.28743 
L 41.20288 24.569224 
L 40.402655 21.68292 
L 41.494153 21.153881 
L 42.444029 19.676692 
L 43.416658 19.972404 
L 44.974165 19.235383 
L 46.063346 17.506959 
L 45.869031 16.421996 
L 46.572531 15.996315 
" clip-path="url(#p5f1a636571)" style="fill: #ffffff"/>
   </g>
   <g id="patch_5">
    <path d="M 115.209433 16.108343 
L 114.894518 17.685076 
L 114.899688 23.451294 
L 115.156173 23.450426 
L 115.245788 34.947175 
L 115.271246 43.082246 
L 119.061259 43.075244 
L 139.51101 43.074342 
L 150.747812 43.07549 
L 163.223995 43.070448 
L 163.24063 32.604351 
L 163.235746 16.190941 
L 153.670799 16.260907 
L 129.096604 16.246412 
L 124.965448 16.124684 
L 115.209433 16.108343 
" clip-path="url(#p5f1a636571)" style="fill: #ffffff"/>
   </g>
   <g id="patch_6">
    <path d="M 61.570555 72.827953 
L 61.561891 70.939061 
L 62.286078 70.831777 
L 63.785383 68.471972 
L 65.73432 68.144488 
L 67.170045 67.406748 
L 68.737878 65.706183 
L 70.346892 65.39047 
L 71.468297 63.927026 
L 72.914971 63.269893 
L 73.745662 63.451504 
L 73.366553 61.406845 
L 72.31766 60.270134 
L 73.473884 58.28928 
L 73.038657 57.83027 
L 75.072259 56.224639 
L 74.815199 54.948242 
L 75.69109 54.303269 
L 76.987797 52.508267 
L 76.755787 50.662086 
L 77.397659 49.664414 
L 79.073727 49.096801 
L 79.595306 47.410068 
L 79.341135 46.648837 
L 81.920207 45.588048 
L 82.013171 43.907432 
L 80.345409 43.053328 
L 79.561615 42.101817 
L 80.164887 37.792553 
L 79.159466 37.866008 
L 78.105065 37.028895 
L 77.380582 38.327436 
L 75.819897 38.22377 
L 75.509042 39.084641 
L 73.764445 40.041877 
L 72.881359 40.957071 
L 71.149697 41.516817 
L 69.972428 42.466658 
L 67.246536 42.456343 
L 65.884473 43.301697 
L 64.610507 45.503938 
L 64.864391 46.496713 
L 66.286339 46.794603 
L 67.004829 48.672773 
L 66.476354 49.381028 
L 64.311188 48.709067 
L 62.515617 49.044234 
L 61.900763 47.631335 
L 60.122455 46.676335 
L 56.997057 46.802624 
L 55.599278 46.585521 
L 54.673541 45.113861 
L 52.098468 43.789157 
L 51.269489 44.170218 
L 50.210198 43.208483 
L 49.400526 43.782832 
L 49.538135 45.028443 
L 48.976313 46.232211 
L 50.128594 48.464239 
L 48.905365 51.032652 
L 47.77708 52.004837 
L 44.926816 51.286454 
L 43.328738 52.032276 
L 43.796241 53.159635 
L 45.162406 54.843409 
L 45.697315 57.824918 
L 45.686152 71.500121 
L 45.687304 82.272657 
L 45.67896 83.102169 
L 65.916965 83.06984 
L 65.342414 82.414085 
L 64.995731 78.997309 
L 64.089286 77.513249 
L 64.73688 76.158113 
L 64.213223 74.081614 
L 62.044639 73.454015 
L 61.570555 72.827953 
" clip-path="url(#p5f1a636571)" style="fill: #ffffff"/>
   </g>
   <g id="patch_7">
    <path d="M 61.570555 72.827953 
L 64.545622 71.897161 
L 66.247912 72.17946 
L 67.877053 70.806249 
L 68.595773 70.970051 
L 72.080051 70.213839 
L 75.344461 71.452073 
L 77.686855 70.133956 
L 79.569318 69.376525 
L 82.178348 69.962492 
L 86.607098 70.032358 
L 89.251788 69.448444 
L 92.621828 69.104919 
L 93.433531 68.739053 
L 96.722982 68.195374 
L 98.797753 68.553729 
L 100.957119 67.852231 
L 103.380742 67.62859 
L 106.375448 67.708237 
L 110.131213 68.259088 
L 111.335797 67.555595 
L 113.601694 67.593675 
L 119.205751 67.572074 
L 119.339272 65.849403 
L 119.369159 54.829975 
L 119.058535 52.308389 
L 119.061259 43.075244 
L 115.271246 43.082246 
L 105.712338 43.104097 
L 94.545284 43.096391 
L 80.345409 43.053328 
L 82.013171 43.907432 
L 81.920207 45.588048 
L 79.341135 46.648837 
L 79.595306 47.410068 
L 79.073727 49.096801 
L 77.397659 49.664414 
L 76.755787 50.662086 
L 76.987797 52.508267 
L 75.69109 54.303269 
L 74.815199 54.948242 
L 75.072259 56.224639 
L 73.038657 57.83027 
L 73.473884 58.28928 
L 72.31766 60.270134 
L 73.366553 61.406845 
L 73.745662 63.451504 
L 72.914971 63.269893 
L 71.468297 63.927026 
L 70.346892 65.39047 
L 68.737878 65.706183 
L 67.170045 67.406748 
L 65.73432 68.144488 
L 63.785383 68.471972 
L 62.286078 70.831777 
L 61.561891 70.939061 
L 61.570555 72.827953 
" clip-path="url(#p5f1a636571)" style="fill: #ffffff"/>
   </g>
   <g id="patch_8">
    <path d="M 119.205751 67.572074 
L 128.019752 67.542591 
L 128.017266 73.840415 
L 129.928529 75.012335 
L 131.843235 75.013118 
L 132.424401 75.972624 
L 134.310632 75.725758 
L 134.309446 74.324496 
L 135.569045 73.363025 
L 136.825758 73.132267 
L 136.814793 72.335262 
L 137.869738 71.861298 
L 141.608212 72.133549 
L 142.553507 72.858527 
L 144.079359 72.870166 
L 148.149198 75.515712 
L 148.749088 76.712082 
L 151.894375 78.51741 
L 155.033026 78.761782 
L 156.26642 79.484726 
L 156.540778 81.889683 
L 158.097141 83.381026 
L 159.622985 84.342204 
L 159.549353 90.098831 
L 158.353077 91.073589 
L 158.335249 92.027941 
L 162.694578 91.997208 
L 163.176997 91.541445 
L 163.298676 81.981587 
L 163.352292 63.421093 
L 163.259585 56.681179 
L 163.223995 43.070448 
L 150.747812 43.07549 
L 139.51101 43.074342 
L 119.061259 43.075244 
L 119.058535 52.308389 
L 119.369159 54.829975 
L 119.339272 65.849403 
L 119.205751 67.572074 
" clip-path="url(#p5f1a636571)" style="fill: #ffffff"/>
   </g>
   <g id="patch_9">
    <path d="M 28.424598 33.774366 
L 28.070009 37.287057 
L 27.051697 41.524194 
L 25.932055 44.206672 
L 25.327015 44.439862 
L 25.298269 46.874595 
L 26.869337 48.253837 
L 25.930521 51.905565 
L 25.141886 53.634094 
L 27.838969 54.273288 
L 26.532798 55.576919 
L 24.763165 55.664166 
L 23.865143 56.924239 
L 22.893495 59.449421 
L 21.183162 59.534361 
L 20.058332 61.246935 
L 17.737922 65.42327 
L 17.031605 67.642997 
L 18.482417 69.960485 
L 19.050086 71.897883 
L 18.522215 73.220964 
L 18.894135 74.060933 
L 20.959744 75.59325 
L 23.456527 76.997584 
L 24.348299 78.001778 
L 26.910112 78.888829 
L 27.940072 80.282407 
L 27.902706 81.295334 
L 29.812879 82.290286 
L 45.687304 82.272657 
L 45.686152 71.500121 
L 45.697315 57.824918 
L 45.162406 54.843409 
L 43.796241 53.159635 
L 43.328738 52.032276 
L 44.926816 51.286454 
L 47.77708 52.004837 
L 48.905365 51.032652 
L 50.128594 48.464239 
L 48.976313 46.232211 
L 49.538135 45.028443 
L 49.400526 43.782832 
L 50.210198 43.208483 
L 48.648884 41.324282 
L 49.065095 40.851476 
L 48.021317 37.042832 
L 47.187707 36.499795 
L 41.816641 36.513297 
L 38.205974 36.553221 
L 38.185205 33.791227 
L 28.424598 33.774366 
" clip-path="url(#p5f1a636571)" style="fill: #ffffff"/>
   </g>
   <g id="patch_10">
    <path d="M 115.58798 77.307404 
L 115.32689 76.018019 
L 117.83862 75.320425 
L 118.715049 72.053223 
L 117.603105 71.140544 
L 114.475936 70.73078 
L 113.951159 69.494943 
L 114.171923 68.404826 
L 113.601694 67.593675 
L 111.335797 67.555595 
L 110.131213 68.259088 
L 106.375448 67.708237 
L 103.380742 67.62859 
L 100.957119 67.852231 
L 98.797753 68.553729 
L 96.722982 68.195374 
L 93.433531 68.739053 
L 92.621828 69.104919 
L 89.251788 69.448444 
L 86.607098 70.032358 
L 82.178348 69.962492 
L 79.569318 69.376525 
L 77.686855 70.133956 
L 75.344461 71.452073 
L 72.080051 70.213839 
L 68.595773 70.970051 
L 67.877053 70.806249 
L 66.247912 72.17946 
L 64.545622 71.897161 
L 61.570555 72.827953 
L 62.044639 73.454015 
L 64.213223 74.081614 
L 64.73688 76.158113 
L 64.089286 77.513249 
L 64.995731 78.997309 
L 65.342414 82.414085 
L 65.916965 83.06984 
L 66.375237 85.116748 
L 65.463956 85.584529 
L 65.065624 87.474916 
L 65.811443 89.029853 
L 69.126512 88.94929 
L 82.185683 88.976073 
L 95.357312 89.04699 
L 94.612928 87.595417 
L 95.907042 86.188595 
L 103.394283 86.174721 
L 105.181729 85.405328 
L 105.293973 84.426959 
L 106.739489 82.859989 
L 108.641551 82.919254 
L 109.290915 80.980179 
L 110.348721 80.446194 
L 110.644311 79.01333 
L 113.149692 78.998918 
L 115.05751 78.280998 
L 115.58798 77.307404 
" clip-path="url(#p5f1a636571)" style="fill: #ffffff"/>
   </g>
   <g id="patch_11">
    <path d="M 158.335249 92.027941 
L 158.353077 91.073589 
L 159.549353 90.098831 
L 159.622985 84.342204 
L 158.097141 83.381026 
L 156.540778 81.889683 
L 156.26642 79.484726 
L 155.033026 78.761782 
L 151.894375 78.51741 
L 148.749088 76.712082 
L 148.149198 75.515712 
L 144.079359 72.870166 
L 142.553507 72.858527 
L 141.608212 72.133549 
L 137.869738 71.861298 
L 136.814793 72.335262 
L 136.825758 73.132267 
L 135.569045 73.363025 
L 134.309446 74.324496 
L 134.310632 75.725758 
L 132.424401 75.972624 
L 131.843235 75.013118 
L 129.928529 75.012335 
L 128.017266 73.840415 
L 128.019752 67.542591 
L 119.205751 67.572074 
L 113.601694 67.593675 
L 114.171923 68.404826 
L 113.951159 69.494943 
L 114.475936 70.73078 
L 117.603105 71.140544 
L 118.715049 72.053223 
L 117.83862 75.320425 
L 115.32689 76.018019 
L 115.58798 77.307404 
L 116.633722 77.308817 
L 116.634316 78.506272 
L 117.578716 78.744038 
L 117.436244 80.611338 
L 116.177255 81.809038 
L 116.11943 84.678496 
L 116.419366 86.609454 
L 118.07302 87.127172 
L 119.549971 89.08236 
L 121.749682 90.497767 
L 123.124692 92.277709 
L 124.908724 93.720019 
L 125.519532 94.665727 
L 126.821137 94.906545 
L 127.519137 95.691626 
L 129.739825 94.294765 
L 130.874517 93.904801 
L 132.045765 92.728655 
L 132.241766 90.999933 
L 134.339001 89.736274 
L 137.014538 91.935918 
L 138.363072 91.638303 
L 140.644522 93.051801 
L 141.523576 92.068583 
L 158.335249 92.027941 
" clip-path="url(#p5f1a636571)" style="fill: #ffffff"/>
   </g>
   <g id="patch_12">
    <path d="M 109.372317 105.689827 
L 109.607183 105.140336 
L 111.385458 105.383579 
L 113.936305 104.968822 
L 116.5706 104.11338 
L 117.688579 103.407795 
L 118.729099 101.480271 
L 118.843073 100.07641 
L 119.616502 99.720527 
L 119.946064 98.268307 
L 122.102863 98.017902 
L 125.101002 98.025915 
L 125.096402 97.085081 
L 126.506527 96.692675 
L 127.519137 95.691626 
L 126.821137 94.906545 
L 125.519532 94.665727 
L 124.908724 93.720019 
L 123.124692 92.277709 
L 121.749682 90.497767 
L 119.549971 89.08236 
L 118.07302 87.127172 
L 116.419366 86.609454 
L 116.11943 84.678496 
L 116.177255 81.809038 
L 117.436244 80.611338 
L 117.578716 78.744038 
L 116.634316 78.506272 
L 116.633722 77.308817 
L 115.58798 77.307404 
L 115.05751 78.280998 
L 113.149692 78.998918 
L 110.644311 79.01333 
L 110.348721 80.446194 
L 109.290915 80.980179 
L 108.641551 82.919254 
L 106.739489 82.859989 
L 105.293973 84.426959 
L 105.181729 85.405328 
L 103.394283 86.174721 
L 95.907042 86.188595 
L 94.612928 87.595417 
L 95.357312 89.04699 
L 98.849495 92.342837 
L 97.760195 93.075812 
L 97.896922 94.002962 
L 96.993727 95.61322 
L 96.818131 97.085611 
L 97.761084 97.946636 
L 98.703467 97.70389 
L 101.651167 97.679732 
L 100.967176 98.584182 
L 101.182777 100.630185 
L 100.547198 102.766318 
L 99.954293 105.43189 
L 109.150109 105.359904 
L 109.372317 105.689827 
" clip-path="url(#p5f1a636571)" style="fill: #ffffff"/>
   </g>
   <g id="patch_13">
    <path d="M 67.521882 96.257181 
L 72.505848 96.24219 
L 72.606353 100.563005 
L 72.392238 102.78631 
L 77.668632 102.708858 
L 82.541766 102.77303 
L 92.391072 102.713979 
L 92.385292 101.748603 
L 96.606769 101.782273 
L 96.680453 102.768098 
L 100.547198 102.766318 
L 101.182777 100.630185 
L 100.967176 98.584182 
L 101.651167 97.679732 
L 98.703467 97.70389 
L 97.761084 97.946636 
L 96.818131 97.085611 
L 96.993727 95.61322 
L 97.896922 94.002962 
L 97.760195 93.075812 
L 98.849495 92.342837 
L 95.357312 89.04699 
L 82.185683 88.976073 
L 69.126512 88.94929 
L 65.811443 89.029853 
L 65.789903 90.701876 
L 66.656579 90.70289 
L 67.254149 91.984205 
L 67.521882 96.257181 
" clip-path="url(#p5f1a636571)" style="fill: #ffffff"/>
   </g>
   <g id="patch_14">
    <path d="M 129.327749 102.521435 
L 130.311867 101.755123 
L 132.323902 101.66189 
L 135.482426 100.89599 
L 136.705791 100.984652 
L 138.164585 100.477929 
L 139.947153 98.85761 
L 141.358737 98.130885 
L 144.076258 98.150279 
L 146.464269 100.704427 
L 163.112264 100.736385 
L 163.176997 91.541445 
L 162.694578 91.997208 
L 158.335249 92.027941 
L 141.523576 92.068583 
L 140.644522 93.051801 
L 138.363072 91.638303 
L 137.014538 91.935918 
L 134.339001 89.736274 
L 132.241766 90.999933 
L 132.045765 92.728655 
L 130.874517 93.904801 
L 129.739825 94.294765 
L 129.268367 96.95553 
L 128.13053 97.695913 
L 128.935609 98.438237 
L 129.327749 102.521435 
" clip-path="url(#p5f1a636571)" style="fill: #ffffff"/>
   </g>
   <g id="patch_15">
    <path d="M 129.327749 102.521435 
L 128.935609 98.438237 
L 128.13053 97.695913 
L 129.268367 96.95553 
L 129.739825 94.294765 
L 127.519137 95.691626 
L 126.506527 96.692675 
L 125.096402 97.085081 
L 125.101002 98.025915 
L 122.102863 98.017902 
L 119.946064 98.268307 
L 119.616502 99.720527 
L 118.843073 100.07641 
L 118.729099 101.480271 
L 117.688579 103.407795 
L 116.5706 104.11338 
L 113.936305 104.968822 
L 111.385458 105.383579 
L 109.607183 105.140336 
L 109.372317 105.689827 
L 108.98722 107.483745 
L 110.637213 112.523174 
L 109.828414 113.626998 
L 110.83129 115.351558 
L 110.877384 117.339904 
L 114.920373 115.554857 
L 116.306006 115.614452 
L 117.708362 114.57781 
L 119.747424 113.765309 
L 120.781929 114.345561 
L 120.783493 107.852742 
L 121.214077 106.489011 
L 122.717211 106.125985 
L 123.222068 104.980233 
L 124.828791 104.232457 
L 125.90933 102.900255 
L 127.252398 102.446971 
L 129.327749 102.521435 
" clip-path="url(#p5f1a636571)" style="fill: #ffffff"/>
   </g>
   <g id="patch_16">
    <path d="M 67.521882 96.257181 
L 67.371641 97.943766 
L 65.839169 98.36777 
L 62.910383 98.293009 
L 61.652817 98.800045 
L 61.65861 100.496476 
L 61.255073 101.982967 
L 62.487339 103.435498 
L 63.081182 104.827969 
L 63.0789 106.287372 
L 63.602789 106.970644 
L 62.219717 109.747241 
L 61.159876 109.737777 
L 60.659024 113.121497 
L 61.582134 113.367239 
L 61.870271 114.803853 
L 62.806896 115.607735 
L 64.177898 115.59213 
L 64.478681 117.266617 
L 65.447304 118.775656 
L 66.670475 118.764404 
L 67.228905 119.447951 
L 69.753255 120.421137 
L 72.054695 121.987196 
L 73.96253 125.080158 
L 75.43226 125.213737 
L 76.100643 126.516723 
L 81.51151 125.277157 
L 84.491227 121.757979 
L 83.772792 119.995585 
L 82.878795 118.71592 
L 83.502835 117.973107 
L 85.63282 118.015363 
L 83.330131 116.722804 
L 83.344547 115.240402 
L 81.460613 113.877764 
L 80.304312 111.507989 
L 80.899231 110.084622 
L 79.799061 108.57953 
L 77.929545 108.734589 
L 75.83662 108.1021 
L 74.825738 108.269512 
L 73.925061 107.277311 
L 71.766824 106.031206 
L 71.181918 105.042548 
L 72.313676 103.575059 
L 72.392238 102.78631 
L 72.606353 100.563005 
L 72.505848 96.24219 
L 67.521882 96.257181 
" clip-path="url(#p5f1a636571)" style="fill: #ffffff"/>
   </g>
   <g id="patch_17">
    <path d="M 120.781929 114.345561 
L 122.743889 115.107152 
L 123.874528 115.071241 
L 125.424265 114.254925 
L 126.657387 115.108065 
L 128.697037 115.028569 
L 130.307781 113.013776 
L 131.1926 111.247002 
L 134.871795 108.572484 
L 136.548765 107.760493 
L 139.053264 105.961975 
L 141.804742 105.045733 
L 163.039044 105.004703 
L 163.112264 100.736385 
L 146.464269 100.704427 
L 144.076258 98.150279 
L 141.358737 98.130885 
L 139.947153 98.85761 
L 138.164585 100.477929 
L 136.705791 100.984652 
L 135.482426 100.89599 
L 132.323902 101.66189 
L 130.311867 101.755123 
L 129.327749 102.521435 
L 127.252398 102.446971 
L 125.90933 102.900255 
L 124.828791 104.232457 
L 123.222068 104.980233 
L 122.717211 106.125985 
L 121.214077 106.489011 
L 120.783493 107.852742 
L 120.781929 114.345561 
" clip-path="url(#p5f1a636571)" style="fill: #ffffff"/>
   </g>
   <g id="patch_18">
    <path d="M 72.392238 102.78631 
L 72.313676 103.575059 
L 71.181918 105.042548 
L 71.766824 106.031206 
L 73.925061 107.277311 
L 74.825738 108.269512 
L 75.83662 108.1021 
L 77.929545 108.734589 
L 79.799061 108.57953 
L 80.899231 110.084622 
L 80.304312 111.507989 
L 81.460613 113.877764 
L 83.344547 115.240402 
L 83.330131 116.722804 
L 85.63282 118.015363 
L 96.100367 117.950583 
L 102.368265 117.996955 
L 102.194422 116.980387 
L 102.943359 115.864485 
L 102.261146 113.390391 
L 100.415534 112.910792 
L 100.404598 112.308341 
L 98.975172 110.716416 
L 98.708033 109.498101 
L 99.224994 108.954859 
L 98.63488 107.532235 
L 99.954293 105.43189 
L 100.547198 102.766318 
L 96.680453 102.768098 
L 96.606769 101.782273 
L 92.385292 101.748603 
L 92.391072 102.713979 
L 82.541766 102.77303 
L 77.668632 102.708858 
L 72.392238 102.78631 
" clip-path="url(#p5f1a636571)" style="fill: #ffffff"/>
   </g>
   <g id="patch_19">
    <path d="M 45.687304 82.272657 
L 29.812879 82.290286 
L 32.758656 85.246528 
L 33.653858 86.885945 
L 35.498325 87.886655 
L 36.250817 91.545834 
L 37.482776 92.874908 
L 37.585291 95.494449 
L 38.282455 96.752194 
L 37.747678 98.590457 
L 36.559485 101.001589 
L 36.302179 103.940725 
L 37.182992 104.879871 
L 37.089734 106.224835 
L 37.784591 106.922219 
L 38.016554 108.384977 
L 39.893469 111.124471 
L 40.847585 114.733774 
L 39.278251 117.152662 
L 42.152118 120.379278 
L 46.035726 123.165132 
L 47.178179 122.82544 
L 51.532224 122.885089 
L 51.527334 121.912648 
L 59.232165 121.830703 
L 59.218072 120.815989 
L 61.061984 120.396726 
L 69.753255 120.421137 
L 67.228905 119.447951 
L 66.670475 118.764404 
L 65.447304 118.775656 
L 64.478681 117.266617 
L 64.177898 115.59213 
L 62.806896 115.607735 
L 61.870271 114.803853 
L 61.582134 113.367239 
L 60.659024 113.121497 
L 61.159876 109.737777 
L 62.219717 109.747241 
L 63.602789 106.970644 
L 63.0789 106.287372 
L 63.081182 104.827969 
L 62.487339 103.435498 
L 61.255073 101.982967 
L 61.65861 100.496476 
L 61.652817 98.800045 
L 62.910383 98.293009 
L 65.839169 98.36777 
L 67.371641 97.943766 
L 67.521882 96.257181 
L 67.254149 91.984205 
L 66.656579 90.70289 
L 65.789903 90.701876 
L 65.811443 89.029853 
L 65.065624 87.474916 
L 65.463956 85.584529 
L 66.375237 85.116748 
L 65.916965 83.06984 
L 45.67896 83.102169 
L 45.687304 82.272657 
" clip-path="url(#p5f1a636571)" style="fill: #ffffff"/>
   </g>
   <g id="patch_20">
    <path d="M 109.372317 105.689827 
L 109.150109 105.359904 
L 99.954293 105.43189 
L 98.63488 107.532235 
L 99.224994 108.954859 
L 98.708033 109.498101 
L 98.975172 110.716416 
L 100.404598 112.308341 
L 100.415534 112.910792 
L 102.261146 113.390391 
L 102.943359 115.864485 
L 102.194422 116.980387 
L 102.368265 117.996955 
L 103.63995 118.624179 
L 103.209349 119.728566 
L 105.849989 120.165156 
L 106.07509 121.994857 
L 106.993321 122.247184 
L 107.233954 123.3203 
L 110.388713 123.326277 
L 110.058863 124.243343 
L 113.999413 124.295493 
L 114.482397 123.732446 
L 114.500733 117.953598 
L 116.312404 117.942535 
L 116.306006 115.614452 
L 114.920373 115.554857 
L 110.877384 117.339904 
L 110.83129 115.351558 
L 109.828414 113.626998 
L 110.637213 112.523174 
L 108.98722 107.483745 
L 109.372317 105.689827 
" clip-path="url(#p5f1a636571)" style="fill: #ffffff"/>
   </g>
   <g id="patch_21">
    <path d="M 163.039044 105.004703 
L 141.804742 105.045733 
L 139.053264 105.961975 
L 136.548765 107.760493 
L 134.871795 108.572484 
L 131.1926 111.247002 
L 130.307781 113.013776 
L 128.697037 115.028569 
L 126.657387 115.108065 
L 125.424265 114.254925 
L 123.874528 115.071241 
L 122.743889 115.107152 
L 120.781929 114.345561 
L 119.747424 113.765309 
L 117.708362 114.57781 
L 116.306006 115.614452 
L 116.312404 117.942535 
L 114.500733 117.953598 
L 114.482397 123.732446 
L 113.999413 124.295493 
L 125.224019 125.060186 
L 127.079426 121.225554 
L 128.150768 120.472254 
L 128.288345 118.816365 
L 129.4351 118.208706 
L 132.106889 117.610402 
L 132.05623 116.726361 
L 134.570861 117.007605 
L 135.052728 116.263884 
L 136.6002 115.457993 
L 138.803961 115.472644 
L 141.495844 117.184489 
L 142.937328 117.393723 
L 144.77548 118.30653 
L 146.908097 117.329898 
L 147.814241 116.362422 
L 148.789153 114.563192 
L 152.331651 114.751649 
L 157.111268 114.469242 
L 158.449699 113.260309 
L 163.135212 113.259139 
L 163.039044 105.004703 
" clip-path="url(#p5f1a636571)" style="fill: #ffffff"/>
   </g>
   <g id="patch_22">
    <path d="M 129.161115 131.799861 
L 133.288204 131.039401 
L 135.931732 130.093978 
L 139.263233 130.513262 
L 140.784761 131.491028 
L 142.380581 131.972846 
L 146.465065 131.666393 
L 151.409609 130.487435 
L 152.640424 130.592065 
L 154.086832 130.121481 
L 155.437706 129.169259 
L 156.129982 127.796091 
L 158.669628 127.395342 
L 159.550166 125.261493 
L 160.814944 125.352746 
L 164.379589 122.927289 
L 167.289947 119.757562 
L 166.953735 118.213889 
L 166.386699 117.704407 
L 163.183642 115.510036 
L 163.135212 113.259139 
L 158.449699 113.260309 
L 157.111268 114.469242 
L 152.331651 114.751649 
L 148.789153 114.563192 
L 147.814241 116.362422 
L 146.908097 117.329898 
L 144.77548 118.30653 
L 142.937328 117.393723 
L 141.495844 117.184489 
L 138.803961 115.472644 
L 136.6002 115.457993 
L 135.052728 116.263884 
L 134.570861 117.007605 
L 132.05623 116.726361 
L 132.106889 117.610402 
L 129.4351 118.208706 
L 128.288345 118.816365 
L 128.150768 120.472254 
L 127.079426 121.225554 
L 125.224019 125.060186 
L 126.133582 124.868571 
L 129.161115 131.799861 
" clip-path="url(#p5f1a636571)" style="fill: #ffffff"/>
   </g>
   <g id="patch_23">
    <path d="M 83.772792 119.995585 
L 85.25516 120.931628 
L 87.365559 120.802607 
L 89.200788 124.170708 
L 89.635438 125.586367 
L 92.432106 128.599587 
L 93.478128 131.631494 
L 95.00655 131.499492 
L 96.503329 132.441473 
L 98.875709 130.974433 
L 101.539971 130.798825 
L 103.071286 131.210425 
L 105.285353 130.784989 
L 107.022779 131.17795 
L 107.048763 138.230797 
L 110.386552 138.265087 
L 112.782486 136.630808 
L 113.028865 135.388197 
L 112.412314 134.43231 
L 113.381729 134.034325 
L 113.305178 133.063134 
L 112.012773 132.826628 
L 111.732974 131.642432 
L 113.105975 130.541248 
L 113.168127 128.81602 
L 111.521675 128.449065 
L 111.354741 127.455145 
L 110.248857 127.218657 
L 109.129725 125.529262 
L 110.058863 124.243343 
L 110.388713 123.326277 
L 107.233954 123.3203 
L 106.993321 122.247184 
L 106.07509 121.994857 
L 105.849989 120.165156 
L 103.209349 119.728566 
L 103.63995 118.624179 
L 102.368265 117.996955 
L 96.100367 117.950583 
L 85.63282 118.015363 
L 83.502835 117.973107 
L 82.878795 118.71592 
L 83.772792 119.995585 
" clip-path="url(#p5f1a636571)" style="fill: #ffffff"/>
   </g>
   <g id="patch_24">
    <path d="M 160.812844 131.74833 
L 161.445252 133.549474 
L 162.623684 134.202652 
L 167.184247 136.734423 
L 169.934586 135.318494 
L 171.539296 134.826687 
L 173.189506 135.099137 
L 173.163328 136.545991 
L 175.252193 137.779506 
L 176.21446 136.506797 
L 175.75103 135.602192 
L 177.735992 135.059114 
L 177.515204 134.261657 
L 178.394275 132.684078 
L 176.621175 129.075524 
L 175.782991 128.324007 
L 176.000592 126.582124 
L 176.923135 124.973276 
L 166.386699 117.704407 
L 166.953735 118.213889 
L 167.289947 119.757562 
L 164.379589 122.927289 
L 160.814944 125.352746 
L 160.812844 131.74833 
" clip-path="url(#p5f1a636571)" style="fill: #ffffff"/>
   </g>
   <g id="patch_25">
    <path d="M 69.753255 120.421137 
L 61.061984 120.396726 
L 59.218072 120.815989 
L 59.232165 121.830703 
L 51.527334 121.912648 
L 51.532224 122.885089 
L 47.178179 122.82544 
L 46.035726 123.165132 
L 49.122471 125.46915 
L 52.669735 129.891071 
L 56.40414 132.112578 
L 57.379331 132.43031 
L 59.515127 133.801279 
L 61.500075 136.807088 
L 61.285912 138.080999 
L 62.420589 138.085839 
L 63.653695 138.852596 
L 65.013475 138.153544 
L 66.990982 138.146656 
L 72.365042 141.791038 
L 75.386256 142.649447 
L 78.145508 142.588043 
L 80.527194 144.981913 
L 85.20523 146.35195 
L 83.403839 143.486403 
L 84.549463 143.42602 
L 85.029555 142.604276 
L 85.019743 141.113927 
L 83.52697 139.361897 
L 83.815402 138.556531 
L 82.74748 137.086141 
L 81.725643 136.453132 
L 80.012437 133.476122 
L 78.830576 132.203723 
L 78.844968 131.39576 
L 77.462748 130.371022 
L 75.945224 129.7638 
L 75.453598 128.810829 
L 76.06669 127.995019 
L 76.100643 126.516723 
L 75.43226 125.213737 
L 73.96253 125.080158 
L 72.054695 121.987196 
L 69.753255 120.421137 
" clip-path="url(#p5f1a636571)" style="fill: #ffffff"/>
   </g>
   <g id="patch_26">
    <path d="M 83.403839 143.486403 
L 90.424316 143.519882 
L 89.754788 142.407709 
L 90.442138 141.60343 
L 89.857794 140.39292 
L 90.066737 138.184494 
L 94.744139 138.180655 
L 94.453982 136.655241 
L 92.739558 134.583457 
L 93.478128 131.631494 
L 92.432106 128.599587 
L 89.635438 125.586367 
L 89.200788 124.170708 
L 87.365559 120.802607 
L 85.25516 120.931628 
L 83.772792 119.995585 
L 84.491227 121.757979 
L 81.51151 125.277157 
L 76.100643 126.516723 
L 76.06669 127.995019 
L 75.453598 128.810829 
L 75.945224 129.7638 
L 77.462748 130.371022 
L 78.844968 131.39576 
L 78.830576 132.203723 
L 80.012437 133.476122 
L 81.725643 136.453132 
L 82.74748 137.086141 
L 83.815402 138.556531 
L 83.52697 139.361897 
L 85.019743 141.113927 
L 85.029555 142.604276 
L 84.549463 143.42602 
L 83.403839 143.486403 
" clip-path="url(#p5f1a636571)" style="fill: #ffffff"/>
   </g>
   <g id="patch_27">
    <path d="M 110.852891 145.403927 
L 110.708974 144.670224 
L 112.282849 143.614526 
L 112.524628 142.179193 
L 113.335181 141.625128 
L 114.430111 140.042986 
L 115.831312 140.219427 
L 116.744332 141.004487 
L 118.820243 141.064107 
L 121.212174 140.287013 
L 123.296685 140.403232 
L 125.185489 139.90299 
L 127.838796 138.736739 
L 129.155941 138.703403 
L 129.161115 131.799861 
L 126.133582 124.868571 
L 125.224019 125.060186 
L 113.999413 124.295493 
L 110.058863 124.243343 
L 109.129725 125.529262 
L 110.248857 127.218657 
L 111.354741 127.455145 
L 111.521675 128.449065 
L 113.168127 128.81602 
L 113.105975 130.541248 
L 111.732974 131.642432 
L 112.012773 132.826628 
L 113.305178 133.063134 
L 113.381729 134.034325 
L 112.412314 134.43231 
L 113.028865 135.388197 
L 112.782486 136.630808 
L 110.386552 138.265087 
L 109.991048 138.861723 
L 110.092414 141.32054 
L 109.767161 142.025475 
L 108.146055 142.628482 
L 107.310187 143.406429 
L 106.400662 145.873911 
L 105.426049 145.775203 
L 103.525722 146.696035 
L 102.203949 146.14486 
L 101.449815 146.463211 
L 102.95524 147.945792 
L 104.221162 148.03554 
L 106.766792 147.250602 
L 107.583072 145.646338 
L 109.890944 145.189805 
L 110.852891 145.403927 
" clip-path="url(#p5f1a636571)" style="fill: #ffffff"/>
   </g>
   <g id="patch_28">
    <path d="M 187.469237 157.295356 
L 189.204413 158.134589 
L 189.761589 157.406705 
L 192.253674 157.475505 
L 194.21398 159.114619 
L 194.340703 160.001395 
L 195.357423 161.085332 
L 195.608527 162.37911 
L 196.436383 162.9447 
L 199.155892 163.569642 
L 200.809841 165.000211 
L 201.348129 166.01739 
L 203.119976 165.585383 
L 203.856858 166.458101 
L 221.213255 166.46812 
L 235.069625 166.404948 
L 222.055468 156.939909 
L 212.923017 150.357209 
L 200.488119 141.49052 
L 192.198239 135.633848 
L 176.923135 124.973276 
L 176.000592 126.582124 
L 175.782991 128.324007 
L 176.621175 129.075524 
L 178.394275 132.684078 
L 177.515204 134.261657 
L 177.735992 135.059114 
L 175.75103 135.602192 
L 176.21446 136.506797 
L 175.252193 137.779506 
L 174.798287 139.181235 
L 176.038878 139.978162 
L 175.511284 142.151968 
L 177.100168 142.69069 
L 177.24035 143.427981 
L 180.186706 144.255721 
L 181.520594 145.400053 
L 182.32194 145.002311 
L 184.821904 145.823362 
L 186.249621 147.868445 
L 185.824776 149.01347 
L 186.116122 150.440097 
L 189.468998 152.294351 
L 189.245639 152.950701 
L 189.708553 155.25005 
L 187.469237 157.295356 
" clip-path="url(#p5f1a636571)" style="fill: #ffffff"/>
   </g>
   <g id="patch_29">
    <path d="M 130.203692 141.183229 
L 130.987777 141.443363 
L 134.802214 140.453624 
L 135.145901 139.891181 
L 138.738165 138.453729 
L 141.430074 137.688721 
L 142.666666 136.802248 
L 142.819801 135.752498 
L 144.306805 134.905736 
L 145.879572 134.622003 
L 146.804126 133.75002 
L 147.874325 133.855216 
L 149.163854 132.966033 
L 150.624956 133.366073 
L 154.263848 132.821231 
L 156.558531 132.05599 
L 159.143346 132.21267 
L 160.812844 131.74833 
L 160.814944 125.352746 
L 159.550166 125.261493 
L 158.669628 127.395342 
L 156.129982 127.796091 
L 155.437706 129.169259 
L 154.086832 130.121481 
L 152.640424 130.592065 
L 151.409609 130.487435 
L 146.465065 131.666393 
L 142.380581 131.972846 
L 140.784761 131.491028 
L 139.263233 130.513262 
L 135.931732 130.093978 
L 133.288204 131.039401 
L 129.161115 131.799861 
L 129.155941 138.703403 
L 130.203692 141.183229 
" clip-path="url(#p5f1a636571)" style="fill: #ffffff"/>
   </g>
   <g id="patch_30">
    <path d="M 110.386552 138.265087 
L 107.048763 138.230797 
L 107.022779 131.17795 
L 105.285353 130.784989 
L 103.071286 131.210425 
L 101.539971 130.798825 
L 98.875709 130.974433 
L 96.503329 132.441473 
L 95.00655 131.499492 
L 93.478128 131.631494 
L 92.739558 134.583457 
L 94.453982 136.655241 
L 94.744139 138.180655 
L 90.066737 138.184494 
L 89.857794 140.39292 
L 90.442138 141.60343 
L 89.754788 142.407709 
L 90.424316 143.519882 
L 83.403839 143.486403 
L 85.20523 146.35195 
L 90.831928 146.879551 
L 92.019016 147.597149 
L 95.619881 146.495378 
L 100.290977 147.153072 
L 101.449815 146.463211 
L 102.203949 146.14486 
L 103.525722 146.696035 
L 105.426049 145.775203 
L 106.400662 145.873911 
L 107.310187 143.406429 
L 108.146055 142.628482 
L 109.767161 142.025475 
L 110.092414 141.32054 
L 109.991048 138.861723 
L 110.386552 138.265087 
" clip-path="url(#p5f1a636571)" style="fill: #ffffff"/>
   </g>
   <g id="patch_31">
    <path d="M 130.203692 141.183229 
L 132.093678 145.726469 
L 132.496659 146.0848 
L 141.561471 154.195477 
L 142.207966 153.259518 
L 144.232092 152.166395 
L 146.131876 150.208833 
L 145.479619 148.98128 
L 147.517544 148.247295 
L 150.306673 144.877172 
L 150.901907 143.657587 
L 153.015804 141.213683 
L 156.394487 137.749663 
L 157.469284 136.203283 
L 158.792771 135.498609 
L 160.298484 135.283343 
L 162.623684 134.202652 
L 161.445252 133.549474 
L 160.812844 131.74833 
L 159.143346 132.21267 
L 156.558531 132.05599 
L 154.263848 132.821231 
L 150.624956 133.366073 
L 149.163854 132.966033 
L 147.874325 133.855216 
L 146.804126 133.75002 
L 145.879572 134.622003 
L 144.306805 134.905736 
L 142.819801 135.752498 
L 142.666666 136.802248 
L 141.430074 137.688721 
L 138.738165 138.453729 
L 135.145901 139.891181 
L 134.802214 140.453624 
L 130.987777 141.443363 
L 130.203692 141.183229 
" clip-path="url(#p5f1a636571)" style="fill: #ffffff"/>
   </g>
   <g id="patch_32">
    <path d="M 150.359174 160.807165 
L 152.024584 158.322089 
L 155.273157 156.493526 
L 156.539066 156.508489 
L 157.459586 155.422495 
L 158.997224 155.892581 
L 160.587849 154.33141 
L 162.334453 154.890393 
L 165.044773 156.452138 
L 166.299197 156.685303 
L 170.623182 156.437489 
L 173.214352 155.638804 
L 174.85163 154.783061 
L 174.583907 154.203441 
L 176.500661 153.293348 
L 177.790471 151.89041 
L 180.613715 153.335896 
L 181.306841 152.924032 
L 183.946416 153.962679 
L 186.114553 156.008262 
L 187.469237 157.295356 
L 189.708553 155.25005 
L 189.245639 152.950701 
L 189.468998 152.294351 
L 186.116122 150.440097 
L 185.824776 149.01347 
L 186.249621 147.868445 
L 184.821904 145.823362 
L 182.32194 145.002311 
L 181.520594 145.400053 
L 180.186706 144.255721 
L 177.24035 143.427981 
L 177.100168 142.69069 
L 175.511284 142.151968 
L 176.038878 139.978162 
L 174.798287 139.181235 
L 175.252193 137.779506 
L 173.163328 136.545991 
L 173.189506 135.099137 
L 171.539296 134.826687 
L 169.934586 135.318494 
L 167.184247 136.734423 
L 162.623684 134.202652 
L 160.298484 135.283343 
L 158.792771 135.498609 
L 157.469284 136.203283 
L 156.394487 137.749663 
L 153.015804 141.213683 
L 150.901907 143.657587 
L 150.306673 144.877172 
L 147.517544 148.247295 
L 145.479619 148.98128 
L 146.131876 150.208833 
L 144.232092 152.166395 
L 142.207966 153.259518 
L 141.561471 154.195477 
L 150.359174 160.807165 
" clip-path="url(#p5f1a636571)" style="fill: #ffffff"/>
   </g>
   <g id="patch_33">
    <path d="M 114.413795 165.834132 
L 121.548612 160.20507 
L 122.649866 159.148174 
L 124.790814 158.393775 
L 127.144172 157.23036 
L 129.091093 157.243933 
L 130.206168 156.599225 
L 131.591282 157.327659 
L 132.654551 156.98344 
L 132.500194 152.41237 
L 132.496659 146.0848 
L 132.093678 145.726469 
L 130.203692 141.183229 
L 129.155941 138.703403 
L 127.838796 138.736739 
L 125.185489 139.90299 
L 123.296685 140.403232 
L 121.212174 140.287013 
L 118.820243 141.064107 
L 116.744332 141.004487 
L 115.831312 140.219427 
L 114.430111 140.042986 
L 113.335181 141.625128 
L 112.524628 142.179193 
L 112.282849 143.614526 
L 110.708974 144.670224 
L 110.852891 145.403927 
L 110.844852 147.273421 
L 111.456803 148.138047 
L 110.839115 148.973824 
L 111.579463 150.891019 
L 110.848384 152.949522 
L 112.343428 153.639189 
L 111.596211 154.745285 
L 111.598665 163.81646 
L 113.337818 164.377116 
L 114.413795 165.834132 
" clip-path="url(#p5f1a636571)" style="fill: #ffffff"/>
   </g>
   <g id="patch_34">
    <path d="M 63.653695 138.852596 
L 64.137271 140.7607 
L 65.411289 143.204797 
L 65.048627 144.905498 
L 63.29281 148.62707 
L 66.000825 147.480946 
L 68.557463 148.130044 
L 70.450327 149.419602 
L 70.959812 150.391053 
L 72.460074 151.114834 
L 72.785922 151.842841 
L 75.158941 151.86358 
L 78.266583 153.570086 
L 79.328191 154.775735 
L 83.01598 153.542433 
L 82.570405 150.982233 
L 82.265859 149.511782 
L 85.20523 146.35195 
L 80.527194 144.981913 
L 78.145508 142.588043 
L 75.386256 142.649447 
L 72.365042 141.791038 
L 66.990982 138.146656 
L 65.013475 138.153544 
L 63.653695 138.852596 
" clip-path="url(#p5f1a636571)" style="fill: #ffffff"/>
   </g>
   <g id="patch_35">
    <path d="M 111.596211 154.745285 
L 112.343428 153.639189 
L 110.848384 152.949522 
L 111.579463 150.891019 
L 110.839115 148.973824 
L 111.456803 148.138047 
L 110.844852 147.273421 
L 110.852891 145.403927 
L 109.890944 145.189805 
L 107.583072 145.646338 
L 106.766792 147.250602 
L 104.221162 148.03554 
L 102.95524 147.945792 
L 101.449815 146.463211 
L 100.290977 147.153072 
L 95.619881 146.495378 
L 92.019016 147.597149 
L 90.831928 146.879551 
L 85.20523 146.35195 
L 82.265859 149.511782 
L 82.570405 150.982233 
L 84.504678 152.513215 
L 88.156184 151.84345 
L 89.473346 152.678699 
L 89.975928 153.564628 
L 92.238362 155.126923 
L 95.399441 155.359828 
L 96.984872 156.501929 
L 96.515127 157.025203 
L 98.224338 157.989667 
L 111.596211 154.745285 
" clip-path="url(#p5f1a636571)" style="fill: #ffffff"/>
   </g>
   <g id="patch_36">
    <path d="M 114.413795 165.834132 
L 114.881268 168.690809 
L 116.417747 168.944362 
L 116.005001 169.830308 
L 116.551342 171.415889 
L 114.884741 172.292075 
L 114.937727 173.479014 
L 116.034992 174.422273 
L 116.499592 176.445942 
L 118.079853 175.678896 
L 119.052759 176.231252 
L 122.086056 176.5496 
L 122.525899 177.348271 
L 130.216246 171.156882 
L 130.866742 170.23754 
L 130.570235 168.569604 
L 150.359174 160.807165 
L 141.561471 154.195477 
L 132.496659 146.0848 
L 132.500194 152.41237 
L 132.654551 156.98344 
L 131.591282 157.327659 
L 130.206168 156.599225 
L 129.091093 157.243933 
L 127.144172 157.23036 
L 124.790814 158.393775 
L 122.649866 159.148174 
L 121.548612 160.20507 
L 114.413795 165.834132 
" clip-path="url(#p5f1a636571)" style="fill: #ffffff"/>
   </g>
   <g id="patch_37">
    <path d="M 111.596211 154.745285 
L 98.224338 157.989667 
L 96.515127 157.025203 
L 96.984872 156.501929 
L 95.399441 155.359828 
L 92.238362 155.126923 
L 89.975928 153.564628 
L 89.473346 152.678699 
L 88.156184 151.84345 
L 84.504678 152.513215 
L 85.408491 154.926894 
L 87.567297 158.328082 
L 93.265985 165.315882 
L 94.191672 165.965464 
L 95.159385 166.582279 
L 98.747026 166.366167 
L 99.396424 166.761011 
L 101.36524 165.743601 
L 114.413795 165.834132 
L 113.337818 164.377116 
L 111.598665 163.81646 
L 111.596211 154.745285 
" clip-path="url(#p5f1a636571)" style="fill: #ffffff"/>
   </g>
   <g id="patch_38">
    <path d="M 186.114553 156.008262 
L 183.946416 153.962679 
L 181.306841 152.924032 
L 180.613715 153.335896 
L 177.790471 151.89041 
L 176.500661 153.293348 
L 174.583907 154.203441 
L 174.85163 154.783061 
L 173.214352 155.638804 
L 170.623182 156.437489 
L 166.299197 156.685303 
L 165.044773 156.452138 
L 162.334453 154.890393 
L 160.587849 154.33141 
L 158.997224 155.892581 
L 157.459586 155.422495 
L 156.539066 156.508489 
L 155.273157 156.493526 
L 152.024584 158.322089 
L 150.359174 160.807165 
L 153.945796 166.624031 
L 154.34884 168.462095 
L 156.938971 171.752855 
L 157.313791 173.124338 
L 158.439285 173.878382 
L 160.363274 174.56201 
L 161.477271 175.744347 
L 171.106663 167.972474 
L 174.766434 167.97133 
L 174.780204 166.527599 
L 175.990916 166.530174 
L 175.93272 165.427505 
L 177.042114 165.440804 
L 176.999957 163.254523 
L 186.114553 156.008262 
" clip-path="url(#p5f1a636571)" style="fill: #ffffff"/>
   </g>
   <g id="patch_39">
    <path d="M 145.2476 180.345062 
L 147.139379 182.711029 
L 148.000089 184.623931 
L 148.080169 186.358401 
L 149.933333 187.702241 
L 153.61776 189.423798 
L 154.670104 189.419185 
L 156.032161 188.757165 
L 156.946923 189.220589 
L 157.604905 188.314229 
L 160.688849 187.629539 
L 162.295597 187.96257 
L 162.77744 187.506655 
L 165.123379 187.318925 
L 166.931048 186.652851 
L 169.400209 186.790099 
L 170.709892 184.55276 
L 171.78468 183.675185 
L 171.821526 182.805937 
L 173.282618 181.521314 
L 175.769603 180.954605 
L 176.299224 179.487216 
L 177.493816 179.703952 
L 178.366555 178.65598 
L 178.110064 177.005959 
L 180.779302 178.142214 
L 181.04008 177.029714 
L 182.531119 176.383891 
L 183.493112 176.867969 
L 185.407281 174.99595 
L 185.664617 173.68005 
L 185.251801 171.490485 
L 185.978319 170.109237 
L 195.608527 162.37911 
L 195.357423 161.085332 
L 194.340703 160.001395 
L 194.21398 159.114619 
L 192.253674 157.475505 
L 189.761589 157.406705 
L 189.204413 158.134589 
L 187.469237 157.295356 
L 186.114553 156.008262 
L 176.999957 163.254523 
L 177.042114 165.440804 
L 175.93272 165.427505 
L 175.990916 166.530174 
L 174.780204 166.527599 
L 174.766434 167.97133 
L 171.106663 167.972474 
L 161.477271 175.744347 
L 159.691477 176.293025 
L 155.67892 176.391163 
L 154.038778 176.764778 
L 151.902424 177.681828 
L 147.408071 178.614048 
L 145.2476 180.345062 
" clip-path="url(#p5f1a636571)" style="fill: #ffffff"/>
   </g>
   <g id="patch_40">
    <path d="M 79.328191 154.775735 
L 79.89241 156.04272 
L 80.22512 158.328358 
L 87.567297 158.328082 
L 85.408491 154.926894 
L 84.504678 152.513215 
L 82.570405 150.982233 
L 83.01598 153.542433 
L 79.328191 154.775735 
" clip-path="url(#p5f1a636571)" style="fill: #ffffff"/>
   </g>
   <g id="patch_41">
    <path d="M 91.840619 172.347019 
L 90.752571 171.486304 
L 90.190141 169.873907 
L 90.583333 167.520324 
L 91.503828 166.757594 
L 93.701198 166.382565 
L 94.191672 165.965464 
L 93.265985 165.315882 
L 87.567297 158.328082 
L 80.22512 158.328358 
L 80.422493 161.519986 
L 79.854281 161.983904 
L 79.667113 164.001007 
L 80.355626 165.192544 
L 81.699866 165.528172 
L 82.161563 167.306406 
L 83.619773 169.944604 
L 83.025068 173.576135 
L 83.468933 175.318625 
L 84.797034 176.172663 
L 85.668036 177.787629 
L 87.190154 178.256203 
L 86.37097 175.617433 
L 88.859684 175.519015 
L 88.861416 174.686033 
L 91.834277 174.671902 
L 91.840619 172.347019 
" clip-path="url(#p5f1a636571)" style="fill: #ffffff"/>
   </g>
   <g id="patch_42">
    <path d="M 161.477271 175.744347 
L 160.363274 174.56201 
L 158.439285 173.878382 
L 157.313791 173.124338 
L 156.938971 171.752855 
L 154.34884 168.462095 
L 153.945796 166.624031 
L 150.359174 160.807165 
L 130.570235 168.569604 
L 130.866742 170.23754 
L 130.216246 171.156882 
L 122.525899 177.348271 
L 122.676771 180.015794 
L 122.122989 181.19041 
L 122.163309 182.715855 
L 122.960619 183.145885 
L 122.28533 184.258588 
L 123.943341 185.232579 
L 125.360716 187.2333 
L 132.258758 190.04226 
L 132.736569 190.420501 
L 141.37106 183.45477 
L 143.635954 183.385242 
L 143.364324 181.85743 
L 145.2476 180.345062 
L 147.408071 178.614048 
L 151.902424 177.681828 
L 154.038778 176.764778 
L 155.67892 176.391163 
L 159.691477 176.293025 
L 161.477271 175.744347 
" clip-path="url(#p5f1a636571)" style="fill: #ffffff"/>
   </g>
   <g id="patch_43">
    <path d="M 203.856858 166.458101 
L 203.119976 165.585383 
L 201.348129 166.01739 
L 200.809841 165.000211 
L 199.155892 163.569642 
L 196.436383 162.9447 
L 195.608527 162.37911 
L 185.978319 170.109237 
L 185.251801 171.490485 
L 185.664617 173.68005 
L 185.407281 174.99595 
L 183.493112 176.867969 
L 182.531119 176.383891 
L 181.04008 177.029714 
L 180.779302 178.142214 
L 178.110064 177.005959 
L 178.366555 178.65598 
L 177.493816 179.703952 
L 176.299224 179.487216 
L 175.769603 180.954605 
L 173.282618 181.521314 
L 171.821526 182.805937 
L 171.78468 183.675185 
L 170.709892 184.55276 
L 169.400209 186.790099 
L 166.931048 186.652851 
L 165.123379 187.318925 
L 162.77744 187.506655 
L 162.295597 187.96257 
L 160.688849 187.629539 
L 157.604905 188.314229 
L 156.946923 189.220589 
L 156.032161 188.757165 
L 154.670104 189.419185 
L 153.61776 189.423798 
L 149.933333 187.702241 
L 148.080169 186.358401 
L 148.000089 184.623931 
L 147.139379 182.711029 
L 145.2476 180.345062 
L 143.364324 181.85743 
L 143.635954 183.385242 
L 141.37106 183.45477 
L 132.736569 190.420501 
L 143.199867 198.787121 
L 143.414017 198.7874 
L 143.433089 204.077813 
L 141.233911 204.54439 
L 140.715805 206.111147 
L 140.610454 206.647801 
L 142.437743 208.22941 
L 141.067013 209.629894 
L 141.773428 211.470014 
L 143.65712 212.004927 
L 144.42627 213.214929 
L 147.352004 214.657795 
L 148.869524 216.004126 
L 151.200513 216.125515 
L 152.768688 218.049913 
L 164.575973 208.952109 
L 164.574046 201.674325 
L 171.457513 201.636495 
L 171.563451 201.200671 
L 174.278965 201.078962 
L 177.363437 198.765321 
L 180.911379 195.89906 
L 186.260155 195.951193 
L 186.274478 193.065143 
L 196.880379 193.184688 
L 196.94596 190.38551 
L 205.21393 190.475162 
L 211.109975 190.454269 
L 217.267307 189.998782 
L 217.175779 188.620921 
L 216.609881 187.276411 
L 217.540725 186.97047 
L 217.54071 185.640397 
L 216.836055 183.946528 
L 215.591434 182.02496 
L 215.036992 179.77697 
L 213.401476 179.226635 
L 211.804517 178.094322 
L 209.94276 177.289833 
L 207.836362 177.126567 
L 207.21862 176.263688 
L 206.894413 173.70258 
L 207.515558 173.152802 
L 205.780951 170.916599 
L 205.02165 171.335993 
L 203.458099 170.417797 
L 204.068841 169.615926 
L 203.339445 168.744876 
L 204.377273 167.056511 
L 203.856858 166.458101 
" clip-path="url(#p5f1a636571)" style="fill: #ffffff"/>
   </g>
   <g id="patch_44">
    <path d="M 91.840619 172.347019 
L 93.898286 174.411953 
L 95.886271 175.508291 
L 96.043963 176.274236 
L 97.199681 177.024347 
L 99.876419 178.056926 
L 102.726226 178.894545 
L 103.240941 179.53846 
L 104.947013 180.174025 
L 106.231107 181.291195 
L 107.156051 182.858756 
L 110.775074 184.505138 
L 110.776766 185.149403 
L 113.017267 183.633363 
L 113.860663 182.363518 
L 115.597536 182.564167 
L 116.168041 183.145851 
L 122.960619 183.145885 
L 122.163309 182.715855 
L 122.122989 181.19041 
L 122.676771 180.015794 
L 122.525899 177.348271 
L 122.086056 176.5496 
L 119.052759 176.231252 
L 118.079853 175.678896 
L 116.499592 176.445942 
L 116.034992 174.422273 
L 114.937727 173.479014 
L 114.884741 172.292075 
L 116.551342 171.415889 
L 116.005001 169.830308 
L 116.417747 168.944362 
L 114.881268 168.690809 
L 114.413795 165.834132 
L 101.36524 165.743601 
L 99.396424 166.761011 
L 98.747026 166.366167 
L 95.159385 166.582279 
L 94.191672 165.965464 
L 93.701198 166.382565 
L 91.503828 166.757594 
L 90.583333 167.520324 
L 90.190141 169.873907 
L 90.752571 171.486304 
L 91.840619 172.347019 
" clip-path="url(#p5f1a636571)" style="fill: #ffffff"/>
   </g>
   <g id="patch_45">
    <path d="M 217.267307 189.998782 
L 218.304689 190.820564 
L 217.455608 191.938492 
L 218.950683 193.773142 
L 220.702546 196.675886 
L 221.662233 197.723563 
L 221.301603 198.819526 
L 223.121892 200.836583 
L 224.348064 200.629384 
L 224.217111 201.806365 
L 225.557575 203.402875 
L 226.173273 203.504207 
L 225.299123 205.635653 
L 225.947083 207.800841 
L 227.494229 209.205228 
L 227.090682 210.330657 
L 227.274928 211.818389 
L 227.808867 212.191393 
L 228.342578 214.541898 
L 229.402963 215.487525 
L 228.911359 216.244367 
L 229.769986 216.82678 
L 230.092962 218.471024 
L 229.257388 219.570878 
L 229.32795 222.044163 
L 232.03738 221.659324 
L 241.689566 221.709406 
L 250.641426 221.755729 
L 262.470249 221.746772 
L 286.708798 221.819021 
L 304.625179 221.815079 
L 304.627189 221.29632 
L 307.520274 221.300191 
L 299.404755 214.972656 
L 287.531894 205.788874 
L 279.242182 199.44009 
L 268.992787 191.649912 
L 254.372708 180.669579 
L 243.881772 172.879326 
L 235.069625 166.404948 
L 221.213255 166.46812 
L 203.856858 166.458101 
L 204.377273 167.056511 
L 203.339445 168.744876 
L 204.068841 169.615926 
L 203.458099 170.417797 
L 205.02165 171.335993 
L 205.780951 170.916599 
L 207.515558 173.152802 
L 206.894413 173.70258 
L 207.21862 176.263688 
L 207.836362 177.126567 
L 209.94276 177.289833 
L 211.804517 178.094322 
L 213.401476 179.226635 
L 215.036992 179.77697 
L 215.591434 182.02496 
L 216.836055 183.946528 
L 217.54071 185.640397 
L 217.540725 186.97047 
L 216.609881 187.276411 
L 217.175779 188.620921 
L 217.267307 189.998782 
" clip-path="url(#p5f1a636571)" style="fill: #ffffff"/>
   </g>
   <g id="patch_46">
    <path d="M 110.776766 185.149403 
L 110.775074 184.505138 
L 107.156051 182.858756 
L 106.231107 181.291195 
L 104.947013 180.174025 
L 103.240941 179.53846 
L 102.726226 178.894545 
L 99.876419 178.056926 
L 97.199681 177.024347 
L 96.043963 176.274236 
L 95.886271 175.508291 
L 93.898286 174.411953 
L 91.840619 172.347019 
L 91.834277 174.671902 
L 88.861416 174.686033 
L 88.859684 175.519015 
L 86.37097 175.617433 
L 87.190154 178.256203 
L 89.73234 181.002365 
L 90.834195 181.880334 
L 93.395151 183.270451 
L 94.604675 183.516262 
L 97.678546 183.332583 
L 98.931258 182.53068 
L 100.410792 183.083905 
L 101.468921 184.072841 
L 103.225935 186.748774 
L 103.957634 185.632871 
L 105.337561 184.821231 
L 106.514261 184.618276 
L 108.708213 185.322619 
L 109.193538 184.732829 
L 110.776766 185.149403 
" clip-path="url(#p5f1a636571)" style="fill: #ffffff"/>
   </g>
   <g id="patch_47">
    <path d="M 132.736569 190.420501 
L 132.258758 190.04226 
L 125.360716 187.2333 
L 123.943341 185.232579 
L 122.28533 184.258588 
L 122.960619 183.145885 
L 116.168041 183.145851 
L 115.597536 182.564167 
L 113.860663 182.363518 
L 113.017267 183.633363 
L 110.776766 185.149403 
L 109.193538 184.732829 
L 108.708213 185.322619 
L 109.434143 186.915127 
L 110.242401 187.209872 
L 113.345324 189.861474 
L 114.08625 189.585215 
L 115.002771 191.064028 
L 113.988964 191.324246 
L 115.347053 192.651147 
L 116.525498 193.198905 
L 117.912334 193.199761 
L 119.500696 194.741043 
L 119.143786 196.557516 
L 120.67974 198.294511 
L 122.123017 198.243298 
L 123.574365 200.130323 
L 128.703301 204.227961 
L 128.718858 205.984422 
L 131.61518 205.857477 
L 132.749297 204.663763 
L 134.575403 205.302139 
L 137.966246 208.221564 
L 139.385934 208.44263 
L 139.798141 207.408946 
L 139.419314 206.3489 
L 140.715805 206.111147 
L 141.233911 204.54439 
L 143.433089 204.077813 
L 143.414017 198.7874 
L 143.199867 198.787121 
L 132.736569 190.420501 
" clip-path="url(#p5f1a636571)" style="fill: #ffffff"/>
   </g>
   <g id="patch_48">
    <path d="M 229.32795 222.044163 
L 229.257388 219.570878 
L 230.092962 218.471024 
L 229.769986 216.82678 
L 228.911359 216.244367 
L 229.402963 215.487525 
L 228.342578 214.541898 
L 227.808867 212.191393 
L 227.274928 211.818389 
L 227.090682 210.330657 
L 227.494229 209.205228 
L 225.947083 207.800841 
L 225.299123 205.635653 
L 226.173273 203.504207 
L 225.557575 203.402875 
L 224.217111 201.806365 
L 224.348064 200.629384 
L 223.121892 200.836583 
L 221.301603 198.819526 
L 221.662233 197.723563 
L 220.702546 196.675886 
L 218.950683 193.773142 
L 217.455608 191.938492 
L 218.304689 190.820564 
L 217.267307 189.998782 
L 211.109975 190.454269 
L 205.21393 190.475162 
L 196.94596 190.38551 
L 196.880379 193.184688 
L 186.274478 193.065143 
L 186.260155 195.951193 
L 180.911379 195.89906 
L 177.363437 198.765321 
L 178.857926 198.766452 
L 178.840701 201.660802 
L 180.628802 201.683074 
L 180.63346 206.051228 
L 178.82235 206.030973 
L 178.591524 210.396503 
L 178.542106 221.948992 
L 196.65383 221.924989 
L 210.589909 221.952933 
L 213.955007 221.847124 
L 217.51127 221.92805 
L 229.32795 222.044163 
" clip-path="url(#p5f1a636571)" style="fill: #ffffff"/>
   </g>
   <g id="patch_49">
    <path d="M 152.768688 218.049913 
L 154.065166 218.089918 
L 155.148021 219.021751 
L 154.670178 219.945079 
L 155.933227 220.987026 
L 156.1232 221.966651 
L 156.779465 221.968488 
L 167.78829 221.964474 
L 178.542106 221.948992 
L 178.591524 210.396503 
L 178.82235 206.030973 
L 180.63346 206.051228 
L 180.628802 201.683074 
L 178.840701 201.660802 
L 178.857926 198.766452 
L 177.363437 198.765321 
L 174.278965 201.078962 
L 171.563451 201.200671 
L 171.457513 201.636495 
L 164.574046 201.674325 
L 164.575973 208.952109 
L 152.768688 218.049913 
" clip-path="url(#p5f1a636571)" style="fill: #ffffff"/>
   </g>
   <g id="patch_50">
    <path d="M 140.715805 206.111147 
L 139.419314 206.3489 
L 139.798141 207.408946 
L 139.385934 208.44263 
L 137.966246 208.221564 
L 134.575403 205.302139 
L 132.749297 204.663763 
L 131.61518 205.857477 
L 128.718858 205.984422 
L 128.703301 204.227961 
L 123.574365 200.130323 
L 122.123017 198.243298 
L 120.67974 198.294511 
L 119.143786 196.557516 
L 119.500696 194.741043 
L 117.912334 193.199761 
L 116.525498 193.198905 
L 115.347053 192.651147 
L 113.988964 191.324246 
L 115.002771 191.064028 
L 114.08625 189.585215 
L 113.345324 189.861474 
L 110.242401 187.209872 
L 109.434143 186.915127 
L 108.708213 185.322619 
L 106.514261 184.618276 
L 105.337561 184.821231 
L 103.957634 185.632871 
L 103.225935 186.748774 
L 103.920801 188.310779 
L 103.342254 190.113165 
L 103.050396 192.323083 
L 101.581834 194.673739 
L 100.557115 195.026919 
L 99.009647 193.848843 
L 98.254341 194.775356 
L 97.90319 196.103949 
L 99.134022 196.417142 
L 99.345305 197.369582 
L 98.718959 198.749681 
L 99.368883 199.738709 
L 100.459763 203.68153 
L 100.23234 204.79629 
L 102.017496 205.984418 
L 102.376134 206.726172 
L 106.29945 208.50816 
L 109.059952 210.960452 
L 111.048426 214.192529 
L 113.413976 215.002533 
L 114.526806 217.500114 
L 114.802564 218.827654 
L 116.367282 219.753241 
L 117.192829 220.832668 
L 118.522684 221.761629 
L 127.27673 221.837402 
L 139.702587 221.904214 
L 156.1232 221.966651 
L 155.933227 220.987026 
L 154.670178 219.945079 
L 155.148021 219.021751 
L 154.065166 218.089918 
L 152.768688 218.049913 
L 151.200513 216.125515 
L 148.869524 216.004126 
L 147.352004 214.657795 
L 144.42627 213.214929 
L 143.65712 212.004927 
L 141.773428 211.470014 
L 141.067013 209.629894 
L 142.437743 208.22941 
L 140.610454 206.647801 
L 140.715805 206.111147 
" clip-path="url(#p5f1a636571)" style="fill: #ffffff"/>
   </g>
   <g id="patch_51">
    <path d="M 347.730256 278.645196 
L 348.349422 277.739909 
L 351.256329 276.806531 
L 352.646352 275.622358 
L 353.780718 275.498073 
L 356.634415 273.015412 
L 357.663709 272.745077 
L 357.557784 271.203394 
L 356.361502 269.749859 
L 354.596415 269.15866 
L 353.354367 267.956462 
L 350.930998 266.323562 
L 349.334888 265.950152 
L 349.639711 264.428342 
L 348.616132 262.27793 
L 347.712317 261.597988 
L 347.671448 260.753761 
L 346.535294 257.656211 
L 343.689127 255.684082 
L 342.557609 253.419979 
L 341.399049 252.712372 
L 341.061105 251.796775 
L 341.297723 250.091391 
L 341.177962 248.06766 
L 329.583368 238.756637 
L 320.541654 231.55113 
L 307.520274 221.300191 
L 304.627189 221.29632 
L 304.625179 221.815079 
L 286.708798 221.819021 
L 262.470249 221.746772 
L 250.641426 221.755729 
L 241.689566 221.709406 
L 241.667703 224.587853 
L 242.253197 225.557489 
L 241.660539 226.521538 
L 241.799896 229.419961 
L 241.696913 244.896265 
L 241.730335 254.027083 
L 240.558812 254.017728 
L 240.565796 262.790534 
L 241.262998 271.699481 
L 240.195703 275.91657 
L 238.481636 280.573915 
L 237.242776 280.509594 
L 236.07586 282.097058 
L 236.719217 283.065575 
L 240.37699 285.565446 
L 240.978715 284.98498 
L 240.958563 283.797305 
L 242.435749 283.811647 
L 242.431127 282.232004 
L 244.174271 281.670197 
L 244.17658 280.17818 
L 250.228742 280.160965 
L 250.245427 280.644932 
L 255.228034 280.668335 
L 255.219388 281.147811 
L 265.034965 281.124995 
L 265.029492 280.159332 
L 275.441066 280.206971 
L 285.880627 280.208537 
L 296.38682 280.12328 
L 318.526387 280.154798 
L 318.530706 278.703555 
L 324.837267 278.631996 
L 337.272326 278.657215 
L 347.730256 278.645196 
" clip-path="url(#p5f1a636571)" style="fill: #ffffff"/>
   </g>
   <g id="patch_52">
    <path d="M 241.689566 221.709406 
L 232.03738 221.659324 
L 229.32795 222.044163 
L 217.51127 221.92805 
L 213.955007 221.847124 
L 210.589909 221.952933 
L 196.65383 221.924989 
L 178.542106 221.948992 
L 167.78829 221.964474 
L 156.779465 221.968488 
L 156.787992 227.758086 
L 160.367048 227.75826 
L 160.341072 230.675687 
L 160.939791 230.674084 
L 163.305329 232.58643 
L 163.306511 233.554509 
L 167.194696 233.56467 
L 167.190441 236.486604 
L 169.5424 236.496201 
L 169.538417 239.393229 
L 174.272829 239.425531 
L 174.256081 242.332812 
L 178.013016 242.162263 
L 177.774649 245.22175 
L 180.109071 245.089391 
L 180.704325 245.575359 
L 180.701968 251.401185 
L 181.631975 251.406711 
L 183.677715 251.418629 
L 183.682419 252.308896 
L 187.178083 252.35897 
L 188.301936 252.852697 
L 188.305107 254.287696 
L 197.106228 254.374251 
L 197.105093 255.101955 
L 200.343625 255.139673 
L 201.216485 254.17652 
L 213.468951 254.156196 
L 229.939775 254.014502 
L 240.558812 254.017728 
L 241.730335 254.027083 
L 241.696913 244.896265 
L 241.799896 229.419961 
L 241.660539 226.521538 
L 242.253197 225.557489 
L 241.667703 224.587853 
L 241.689566 221.709406 
" clip-path="url(#p5f1a636571)" style="fill: #ffffff"/>
   </g>
   <g id="patch_53">
    <path d="M 141.694928 248.969087 
L 142.188299 249.465473 
L 144.143903 248.852357 
L 146.769044 248.35814 
L 148.783976 248.598269 
L 150.729244 249.534107 
L 153.255391 251.224239 
L 153.189753 249.317779 
L 152.137384 248.267294 
L 153.407072 247.605408 
L 156.964022 247.122487 
L 157.622058 245.661136 
L 158.472974 244.949998 
L 160.128706 244.34332 
L 163.503106 246.035557 
L 165.665667 246.278133 
L 166.594506 246.865741 
L 168.044918 247.068546 
L 168.828411 247.939329 
L 171.661917 248.999749 
L 174.052455 249.008489 
L 175.928918 249.772751 
L 178.598382 251.525235 
L 180.701968 251.401185 
L 180.704325 245.575359 
L 180.109071 245.089391 
L 177.774649 245.22175 
L 178.013016 242.162263 
L 174.256081 242.332812 
L 174.272829 239.425531 
L 169.538417 239.393229 
L 169.5424 236.496201 
L 167.190441 236.486604 
L 167.194696 233.56467 
L 163.306511 233.554509 
L 163.305329 232.58643 
L 160.939791 230.674084 
L 160.341072 230.675687 
L 160.367048 227.75826 
L 156.787992 227.758086 
L 156.779465 221.968488 
L 156.1232 221.966651 
L 139.702587 221.904214 
L 127.27673 221.837402 
L 118.522684 221.761629 
L 119.524396 223.060017 
L 119.886533 224.772728 
L 120.614794 226.014248 
L 124.606103 227.110844 
L 125.899714 228.481763 
L 126.614157 229.820775 
L 129.93074 232.853317 
L 133.230063 233.283383 
L 133.872527 233.856113 
L 135.349168 236.873183 
L 134.68022 237.359272 
L 133.502929 239.175411 
L 133.508112 239.940991 
L 135.005474 241.3122 
L 138.003642 242.835144 
L 138.746282 242.184152 
L 141.626462 243.229627 
L 142.262285 244.49619 
L 142.330207 246.055771 
L 141.694928 248.969087 
" clip-path="url(#p5f1a636571)" style="fill: #ffffff"/>
   </g>
   <g id="patch_54">
    <path d="M 181.091343 305.928994 
L 181.930698 306.725414 
L 180.834325 307.325512 
L 178.375601 306.755914 
L 177.339051 305.470071 
L 178.663113 304.995137 
L 181.091343 305.928994 
" clip-path="url(#p5f1a636571)" style="fill: #ffffff"/>
   </g>
   <g id="patch_55">
    <path d="M 204.821039 264.299625 
L 208.423064 271.613677 
L 208.556623 273.318963 
L 207.393758 273.319369 
L 207.381726 275.714815 
L 203.375548 275.711845 
L 198.327943 278.806682 
L 198.206493 279.789283 
L 193.495595 278.029893 
L 192.080555 277.983205 
L 190.223388 276.739149 
L 189.202123 276.457317 
L 187.887224 274.280146 
L 187.302332 272.650757 
L 183.50738 270.754847 
L 182.094047 269.506875 
L 180.562693 268.912771 
L 181.396277 268.120647 
L 181.711728 266.221096 
L 181.631975 251.406711 
L 183.677715 251.418629 
L 183.682419 252.308896 
L 187.178083 252.35897 
L 188.301936 252.852697 
L 188.305107 254.287696 
L 197.106228 254.374251 
L 197.105093 255.101955 
L 200.343625 255.139673 
L 204.821039 264.299625 
" clip-path="url(#p5f1a636571)" style="fill: #ffffff"/>
   </g>
   <g id="patch_56">
    <path d="M 161.968739 281.550015 
L 163.907327 281.840475 
L 163.985037 283.192506 
L 159.223295 284.78047 
L 157.281234 283.643513 
L 155.758252 281.630493 
L 158.743704 280.427204 
L 160.748826 280.488835 
L 161.410271 280.041179 
L 161.968739 281.550015 
" clip-path="url(#p5f1a636571)" style="fill: #ffffff"/>
   </g>
   <g id="patch_57">
    <path d="M 169.537818 279.592988 
L 171.408713 279.51367 
L 172.723002 279.847146 
L 173.617912 280.631676 
L 175.86828 280.733746 
L 176.230371 279.970894 
L 177.579228 279.570951 
L 178.821562 279.921403 
L 178.243267 281.089885 
L 176.78679 281.654206 
L 174.334082 281.781062 
L 172.47004 282.632717 
L 169.218077 282.540766 
L 167.397825 281.951224 
L 167.323824 280.226415 
L 165.844638 279.293594 
L 166.108852 278.715901 
L 167.805041 278.905658 
L 169.537818 279.592988 
" clip-path="url(#p5f1a636571)" style="fill: #ffffff"/>
   </g>
   <g id="patch_58">
    <path d="M 181.711728 266.221096 
L 181.396277 268.120647 
L 180.562693 268.912771 
L 177.641874 267.514636 
L 175.87044 267.330549 
L 173.559874 267.622989 
L 172.18799 268.161086 
L 170.304927 267.480896 
L 167.183643 267.74308 
L 165.7099 266.89653 
L 164.639745 266.842774 
L 163.023803 266.041469 
L 159.987617 265.973938 
L 158.700376 265.592141 
L 153.988934 265.809778 
L 148.560138 266.315426 
L 147.372449 265.433122 
L 146.256755 263.938086 
L 143.929822 262.814616 
L 142.524004 262.904464 
L 141.813007 261.783266 
L 143.302283 257.926218 
L 142.073758 256.220561 
L 142.999462 253.241404 
L 141.674219 251.388234 
L 140.945972 251.351416 
L 141.694928 248.969087 
L 142.188299 249.465473 
L 144.143903 248.852357 
L 146.769044 248.35814 
L 148.783976 248.598269 
L 150.729244 249.534107 
L 153.255391 251.224239 
L 153.189753 249.317779 
L 152.137384 248.267294 
L 153.407072 247.605408 
L 156.964022 247.122487 
L 157.622058 245.661136 
L 158.472974 244.949998 
L 160.128706 244.34332 
L 163.503106 246.035557 
L 165.665667 246.278133 
L 166.594506 246.865741 
L 168.044918 247.068546 
L 168.828411 247.939329 
L 171.661917 248.999749 
L 174.052455 249.008489 
L 175.928918 249.772751 
L 178.598382 251.525235 
L 180.701968 251.401185 
L 181.631975 251.406711 
L 181.711728 266.221096 
" clip-path="url(#p5f1a636571)" style="fill: #ffffff"/>
   </g>
   <g id="patch_59">
    <path d="M 341.373442 300.068806 
L 341.519693 299.284746 
L 343.639595 296.805657 
L 344.744305 296.158214 
L 344.260174 294.812856 
L 344.851385 294.097487 
L 344.48121 292.933422 
L 344.663134 291.802815 
L 345.553681 291.398439 
L 345.190415 290.129398 
L 345.35851 288.987171 
L 344.657342 287.456811 
L 344.594583 286.020751 
L 345.477658 285.432358 
L 345.264084 284.336879 
L 344.397095 283.499728 
L 347.413663 280.778859 
L 347.730256 278.645196 
L 337.272326 278.657215 
L 324.837267 278.631996 
L 318.530706 278.703555 
L 318.526387 280.154798 
L 296.38682 280.12328 
L 285.880627 280.208537 
L 275.441066 280.206971 
L 265.029492 280.159332 
L 265.034965 281.124995 
L 255.219388 281.147811 
L 255.228034 280.668335 
L 250.245427 280.644932 
L 250.228742 280.160965 
L 244.17658 280.17818 
L 244.174271 281.670197 
L 242.431127 282.232004 
L 242.435749 283.811647 
L 240.958563 283.797305 
L 240.978715 284.98498 
L 240.37699 285.565446 
L 243.527923 289.020643 
L 244.914157 289.377531 
L 244.979217 290.883281 
L 246.933652 291.15984 
L 249.005578 292.584862 
L 245.776591 296.734042 
L 245.790982 297.696496 
L 250.61495 297.705954 
L 250.397307 298.182149 
L 254.684151 299.565409 
L 254.689938 300.124217 
L 258.167328 300.106442 
L 263.305037 300.274848 
L 268.554645 300.293464 
L 285.827351 300.274049 
L 293.026855 300.314185 
L 304.803022 300.286556 
L 313.52981 300.230452 
L 327.172149 300.225288 
L 334.617769 300.183839 
L 341.373442 300.068806 
" clip-path="url(#p5f1a636571)" style="fill: #ffffff"/>
   </g>
   <g id="patch_60">
    <path d="M 240.37699 285.565446 
L 236.719217 283.065575 
L 230.312125 283.076605 
L 230.310426 284.512311 
L 227.577414 286.388459 
L 225.811541 289.659951 
L 226.95516 290.331704 
L 229.478976 292.735773 
L 232.064932 294.168292 
L 233.235865 294.228587 
L 235.503459 296.085456 
L 236.623737 296.464716 
L 238.982297 299.047044 
L 240.234995 299.193744 
L 241.697841 300.134182 
L 242.921768 301.622723 
L 243.50954 299.401551 
L 245.809969 298.850131 
L 245.790982 297.696496 
L 245.776591 296.734042 
L 249.005578 292.584862 
L 246.933652 291.15984 
L 244.979217 290.883281 
L 244.914157 289.377531 
L 243.527923 289.020643 
L 240.37699 285.565446 
" clip-path="url(#p5f1a636571)" style="fill: #ffffff"/>
   </g>
   <g id="patch_61">
    <path d="M 292.326697 327.099589 
L 305.204784 326.104956 
L 323.020189 324.811402 
L 338.311491 323.772843 
L 339.333316 323.15002 
L 341.748887 323.448059 
L 344.697847 322.498659 
L 344.545556 321.332461 
L 346.610815 319.606209 
L 346.821844 317.563871 
L 346.223987 316.528554 
L 345.582092 314.277109 
L 344.896719 313.445092 
L 343.145456 313.231468 
L 341.723503 313.551874 
L 338.706299 311.173735 
L 339.640353 309.153863 
L 339.654457 305.414482 
L 338.342755 304.990448 
L 338.986944 302.457383 
L 338.160537 301.181063 
L 339.372654 300.588274 
L 340.684347 300.716552 
L 341.373442 300.068806 
L 334.617769 300.183839 
L 327.172149 300.225288 
L 313.52981 300.230452 
L 304.803022 300.286556 
L 293.026855 300.314185 
L 293.161961 311.969698 
L 292.42629 311.971847 
L 292.415711 320.658585 
L 292.326697 327.099589 
" clip-path="url(#p5f1a636571)" style="fill: #ffffff"/>
   </g>
   <g id="patch_62">
    <path d="M 210.989673 314.247596 
L 213.448712 316.989645 
L 217.262337 319.772761 
L 215.328879 320.950328 
L 212.967147 319.234653 
L 210.515891 315.469074 
L 209.878302 313.307266 
L 210.989673 314.247596 
" clip-path="url(#p5f1a636571)" style="fill: #ffffff"/>
   </g>
   <g id="patch_63">
    <path d="M 213.147575 299.820625 
L 213.875535 299.790219 
L 217.352103 300.964218 
L 217.264325 301.404498 
L 219.241511 303.289337 
L 218.745564 304.527851 
L 217.139385 303.838618 
L 215.507315 303.931187 
L 214.098037 303.632426 
L 213.32775 302.617879 
L 213.335247 300.523625 
L 210.485327 299.836432 
L 209.440734 298.565361 
L 211.928562 298.921252 
L 213.147575 299.820625 
" clip-path="url(#p5f1a636571)" style="fill: #ffffff"/>
   </g>
   <g id="patch_64">
    <path d="M 230.310426 284.512311 
L 227.577414 286.388459 
L 225.811541 289.659951 
L 223.604629 289.115616 
L 222.399155 289.544649 
L 221.225319 288.89468 
L 219.638171 290.907505 
L 217.5715 289.997811 
L 215.816844 289.68974 
L 215.531303 288.475289 
L 216.493818 287.72905 
L 216.574953 286.666267 
L 214.203098 282.23849 
L 213.224402 281.122036 
L 211.431138 280.000257 
L 207.519413 279.992932 
L 203.513244 280.586039 
L 202.702671 281.225463 
L 201.354957 280.203101 
L 198.206493 279.789283 
L 198.327943 278.806682 
L 203.375548 275.711845 
L 207.381726 275.714815 
L 207.393758 273.319369 
L 208.556623 273.318963 
L 208.423064 271.613677 
L 204.821039 264.299625 
L 200.343625 255.139673 
L 201.216485 254.17652 
L 213.468951 254.156196 
L 229.939775 254.014502 
L 240.558812 254.017728 
L 240.565796 262.790534 
L 241.262998 271.699481 
L 240.195703 275.91657 
L 238.481636 280.573915 
L 237.242776 280.509594 
L 236.07586 282.097058 
L 236.719217 283.065575 
L 230.312125 283.076605 
L 230.310426 284.512311 
" clip-path="url(#p5f1a636571)" style="fill: #ffffff"/>
   </g>
   <g id="patch_65">
    <path d="M 242.921768 301.622723 
L 244.529688 302.365291 
L 246.877624 304.362536 
L 250.688372 308.867868 
L 251.862159 310.514091 
L 253.409565 314.061061 
L 254.361176 318.519038 
L 253.332958 319.752299 
L 253.372701 320.351022 
L 254.689277 321.437322 
L 254.129724 323.545145 
L 254.91611 323.81791 
L 256.791709 323.486482 
L 258.414015 324.905988 
L 259.450585 327.272209 
L 258.188356 327.255189 
L 258.560302 329.890909 
L 277.35417 328.30218 
L 292.326697 327.099589 
L 292.415711 320.658585 
L 292.42629 311.971847 
L 293.161961 311.969698 
L 293.026855 300.314185 
L 285.827351 300.274049 
L 268.554645 300.293464 
L 263.305037 300.274848 
L 258.167328 300.106442 
L 254.689938 300.124217 
L 254.684151 299.565409 
L 250.397307 298.182149 
L 250.61495 297.705954 
L 245.790982 297.696496 
L 245.809969 298.850131 
L 243.50954 299.401551 
L 242.921768 301.622723 
" clip-path="url(#p5f1a636571)" style="fill: #ffffff"/>
   </g>
  </g>
 </g>
 <defs>
  <clipPath id="p5f1a636571">
   <rect x="0" y="0" width="374.695315" height="345.6"/>
  </clipPath>
 </defs>
</svg>
