<svg width="25" height="25" viewBox="0 0 25 25" fill="none" xmlns="http://www.w3.org/2000/svg">
<path fill-rule="evenodd" clip-rule="evenodd" d="M0.366211 12.1984C0.366211 5.66347 5.66347 0.366211 12.1984 0.366211C18.7333 0.366211 24.0305 5.66347 24.0305 12.1984C24.0305 18.7333 18.7333 24.0305 12.1984 24.0305C5.66347 24.0305 0.366211 18.7333 0.366211 12.1984ZM12.1984 2.73264C9.6879 2.73264 7.28026 3.72992 5.50509 5.50509C3.72992 7.28026 2.73264 9.6879 2.73264 12.1984C2.73264 14.7088 3.72992 17.1165 5.50509 18.8917C7.28026 20.6668 9.6879 21.6641 12.1984 21.6641C14.7088 21.6641 17.1165 20.6668 18.8917 18.8917C20.6668 17.1165 21.6641 14.7088 21.6641 12.1984C21.6641 9.6879 20.6668 7.28026 18.8917 5.50509C17.1165 3.72992 14.7088 2.73264 12.1984 2.73264Z" fill="#005587"/>
<path fill-rule="evenodd" clip-rule="evenodd" d="M13.3811 6.28234C13.3811 5.96853 13.2565 5.66757 13.0346 5.44568C12.8127 5.22378 12.5117 5.09912 12.1979 5.09912C11.8841 5.09912 11.5832 5.22378 11.3613 5.44568C11.1394 5.66757 11.0147 5.96853 11.0147 6.28234V11.0152H6.28185C5.96804 11.0152 5.66709 11.1399 5.44519 11.3618C5.22329 11.5837 5.09863 11.8846 5.09863 12.1984C5.09863 12.5122 5.22329 12.8132 5.44519 13.0351C5.66709 13.257 5.96804 13.3816 6.28185 13.3816H11.0147V18.1145C11.0147 18.4283 11.1394 18.7293 11.3613 18.9512C11.5832 19.1731 11.8841 19.2977 12.1979 19.2977C12.5117 19.2977 12.8127 19.1731 13.0346 18.9512C13.2565 18.7293 13.3811 18.4283 13.3811 18.1145V13.3816H18.114C18.4278 13.3816 18.7288 13.257 18.9507 13.0351C19.1726 12.8132 19.2972 12.5122 19.2972 12.1984C19.2972 11.8846 19.1726 11.5837 18.9507 11.3618C18.7288 11.1399 18.4278 11.0152 18.114 11.0152H13.3811V6.28234Z" fill="#005587"/>
</svg>
