<svg aria-label="LPPI Design" class="w-full h-full object-cover" viewBox="0 0 1189 640" fill="none" xmlns="http://www.w3.org/2000/svg">
  <path fill-rule="evenodd" clip-rule="evenodd" d="M770.025 425.673C767.806 427.048 765.757 429.139 763.345 429.717C721.932 439.652 680.756 450.805 638.959 458.839C585.732 469.073 532.04 476.947 478.476 485.388C464.903 487.527 451.028 487.692 437.35 489.269C428.715 490.264 420.242 492.718 411.602 493.609C389.076 495.935 366.508 497.889 343.931 499.66C340 499.969 335.925 498.169 331.944 498.284C329.506 498.351 327.144 501.051 324.703 501.125C303.514 501.773 282.311 502.614 261.122 502.387C232.311 502.077 203.388 502.265 174.74 499.737C131.04 495.882 87.683 489.007 50.4247 463.148C26.0203 446.211 4.82811 426.801 0.734852 394.665C-2.22388 371.436 3.916 350.666 16.1958 331.705C25.4668 317.387 36.7535 304.379 46.8073 290.546C49.5902 286.716 50.7954 281.776 53.3955 277.78C57.4267 271.59 61.2596 264.964 66.5253 259.926C96.2041 231.532 129.233 207.309 163.953 185.522C189.656 169.394 215.731 153.685 242.591 139.588C328.456 94.5202 417.665 57.6833 512.16 34.4562C575.305 18.9342 639.18 7.14872 704.081 3.23857C743.26 0.877687 782.694 2.58516 822.017 2.76226C853.859 2.90498 885.698 3.51541 917.537 3.87478C975.914 4.53335 1033.56 10.7734 1089.58 27.8275C1117.6 36.3545 1143.82 48.5733 1164.73 70.0861C1188.78 94.8194 1196.46 138.796 1180.93 169.659C1168.48 194.503 1149.89 215.776 1126.92 231.474C1114.73 239.899 1102.09 247.809 1090.75 257.266C1081.08 265.331 1073.61 275.976 1064.08 284.232C1049.18 297.128 1033.13 308.695 1018.08 321.433C1013.26 325.512 1010.4 331.802 1006.09 336.584C994.375 349.574 983.664 363.907 970.171 374.757C949.48 391.393 927.007 405.88 904.859 420.64C893.03 428.522 880.296 435.054 867.972 442.196C859.023 442.711 851.404 445.815 846.09 453.396C831.726 459.879 817.379 466.399 802.985 472.813C799.881 474.189 796.616 475.186 793.46 476.326C781.907 480.911 770.329 485.511 758.726 490.125C754.9 492.689 751.395 496.095 747.198 497.691C662.873 529.84 576.526 556.442 488.711 577.325C433.327 590.45 378.146 604.665 322.339 615.682C273.382 625.352 223.695 631.377 174.286 638.714C166.39 639.887 158.251 639.342 150.242 639.88C141.444 640.658 132.736 637.618 126.345 631.537C125.527 630.826 124.618 630.227 123.641 629.756C121.11 628.456 118.539 627.238 115.982 625.988L122.959 620.89C122.432 620.356 121.849 619.88 121.221 619.47C118.758 618.223 116.253 617.062 113.763 615.869C116.596 614.163 119.339 611.139 122.276 610.939C221.219 604.211 316.454 578.384 411.97 554.464C523.698 526.484 633.937 493.461 741.388 451.751C766.132 442.146 790.591 431.744 814.801 420.865C832.544 412.821 849.708 403.564 866.172 393.16C857.473 396.092 848.821 399.168 840.069 401.93C821.62 407.74 803.104 413.304 784.688 419.195C782.212 419.986 780.156 422.091 777.911 423.587L770.025 425.673ZM231.767 201.815C222.129 206.141 212.146 209.835 202.914 214.903C160.751 237.866 121.955 266.534 87.6219 300.099C75.7055 311.805 66.6179 326.37 56.0471 339.474C43.3427 354.86 35.9707 373.952 35.0378 393.885C34.7474 399.797 36.1102 407.399 39.7518 411.572C48.0782 421.116 59.5477 426.612 73.0074 430C63.8304 413.241 59.9568 396.565 69.5566 380.364C76.2756 368.969 84.474 358.515 93.9376 349.274C122.584 321.586 157.008 302.125 192.041 283.88C247.002 255.257 304.686 233.257 363.724 214.692C440.228 190.626 518.23 173.473 598.02 164.99C625.647 162.052 653.357 159.807 681.086 157.963C737.34 154.254 793.831 156.664 849.565 165.152C879.941 169.741 909.84 175.981 938.734 187.433C968.121 199.078 994.798 212.949 1009.17 243.035C1010.92 246.694 1012.94 247.942 1016.93 245.859C1026.47 240.882 1036.35 236.544 1045.78 231.373C1053.46 227.163 1062.3 223.517 1067.78 217.162C1080.21 203.229 1087.62 185.532 1088.83 166.895C1089.72 151.898 1087.26 136.864 1078.59 125.056C1068.18 110.903 1057.35 95.8124 1040.78 88.2419C1032.77 84.5856 1029.62 73.706 1018.95 74.7581C1018.09 74.844 1017 72.0558 1015.91 70.6892C1012.54 66.4587 1005.32 68.0179 1003.01 62.1578C1002.55 62.4498 1002.05 62.6777 1001.53 62.8351C999.273 63.1892 996.706 64.3083 994.774 63.6378C971.582 55.5895 948.623 46.9309 924.422 42.0437C902.241 37.564 880.19 34.9511 857.357 36.402C843.169 37.3027 828.761 42.0506 814.193 36.7836C811.388 35.7694 807.066 40.0239 803.276 40.4932C778.346 43.5874 753.418 46.9206 728.391 48.9713C704.013 50.9671 680.583 60.26 655.463 57.3446C649.707 56.6759 641.999 56.6346 636.5 63.4539C634.041 66.5017 627.067 62.4724 621.324 65.4101C615.187 68.5507 606.874 67.4351 599.515 68.1949C599.264 68.2207 599.049 68.5129 598.792 68.5748C582.608 72.4168 566.983 78.3731 551.135 82.8907C491.121 99.9964 431.352 117.627 373.067 140.023C359.934 145.07 347.081 151.011 333.659 155.09C315.732 160.54 297.326 164.072 281.56 175.44C275.665 179.689 267.781 181.113 260.937 184.136C258.344 185.528 255.872 187.136 253.548 188.941L231.767 201.815ZM596.255 206.853L601.114 201.083C598.957 200.803 597.234 200.109 595.816 200.492C592.667 201.48 589.571 202.624 586.54 203.92L596.562 206.59C594.489 208.117 592.522 210.687 590.286 210.946C586.034 211.442 581.427 209.709 577.326 210.558C571.406 211.781 565.956 215.22 560.035 216.43C514.406 225.764 468.576 234.185 423.103 244.182C405.182 248.123 387.812 254.838 370.541 261.202C341.186 272.018 310.11 278.019 281.877 291.952C279.506 293.121 276.406 292.822 273.959 293.897C264.756 297.941 255.577 302.063 246.595 306.555C238.301 310.703 230.478 315.779 222.075 319.672C213.954 323.431 205.266 325.951 197.02 329.458C174.853 338.854 156.931 354.574 138.206 368.893C127.857 376.803 119.131 386.882 110.315 396.555C105.855 401.881 101.942 407.627 98.6321 413.708C94.8012 420.118 98.0844 423.495 104.627 424.23C123.876 426.383 143.16 430 162.422 430C252.895 430.037 342.251 417.487 431.442 404.343C481.325 396.993 530.973 387.958 580.554 378.802C662.588 363.654 743.984 345.709 824.171 322.744C880.605 306.581 936.405 288.651 990.802 266.633C997.714 263.834 997 261.277 992.922 256.853C979.347 242.12 961.585 232.781 943.44 226.439C920.122 218.293 895.2 214.592 871.027 208.742C869.299 208.324 868.179 205.833 866.55 204.592C864.609 203.113 862.425 201.942 860.346 200.636L857.874 203.584L864.575 204.796L862.988 206.846C858.686 206.105 854.222 204.256 850.108 204.828C837.192 206.622 824.8 202.551 812.006 202.52C790.234 202.469 768.461 200.586 746.689 199.408C740.974 199.099 735.284 198.249 729.568 198.22C724.451 198.186 719.328 198.917 714.21 199.335C710.408 199.647 706.591 199.949 702.791 200.339C699.235 200.706 694.706 202.754 692.327 201.317C685.29 197.062 678.866 199.715 672.388 201.436C666.77 202.929 661.584 205.327 658.178 198.021C657.629 196.843 655.068 196.494 653.366 196C653.153 195.939 651.94 197.604 652.141 197.984C655.571 204.465 649.756 201.483 647.757 202.016C645.027 202.65 642.261 203.129 639.475 203.449C634.733 204.144 629.988 204.825 625.234 205.431C619.472 206.166 612.824 205.302 608.162 207.902C602.98 210.79 600.056 208.859 596.255 206.853ZM1056.74 49.432C1055.42 50.6708 1053.94 53.1117 1052.8 52.9718C1041.64 51.5932 1030.55 49.7384 1019.41 48.1433C1017.28 47.9764 1015.14 47.9552 1013 48.0801C1014.23 49.7401 1015.67 51.2468 1017.28 52.5655C1027.12 58.8109 1037.38 64.4868 1046.98 71.0552C1079.4 93.2295 1099.3 123.237 1104.93 161.317C1106.46 171.65 1105.16 182.371 1105.16 195C1128.69 178.164 1147.86 160.66 1158.89 136.749C1164.26 125.094 1165.25 111.994 1156.48 100.822C1138.74 78.2479 1111.91 70.1578 1086 60.714C1076.06 57.0926 1063.91 58.7743 1056.74 49.432ZM760 0.0722236C645.015 -1.59296 462.894 25.0325 253.761 132.423C200.517 159.425 150.307 192.139 104 230C301.679 88.4421 520.611 9.30578 760 0.0722236ZM115 340.162L116.018 342C127.101 334.675 138.014 327.063 149.297 320.078C189.222 295.364 230.633 273.524 274.236 256.627C312.592 241.765 351.027 226.568 390.453 215.32C439.973 201.194 490.404 190.3 540.714 179.318C561.831 174.705 583.635 173.391 605.144 170.716C617.716 169.152 630.317 167.821 642.913 166.457C655.604 165.083 668.304 163.795 681 162.48C671.162 161.338 661.365 160.363 651.814 161.52C622.666 165.051 593.571 169.108 564.532 173.494C488.555 184.968 413.567 201.288 341.123 227.727C298.197 243.395 255.978 261.264 214.037 279.578C178.44 294.929 145.105 315.321 115 340.162ZM885 394.231L883.558 392C873.681 397.227 864.017 402.899 853.881 407.589C830.449 418.429 807.017 429.308 783.168 439.216C754.834 450.988 726.141 461.949 697.412 472.766C692.954 474.446 687.834 479.421 682.36 473.928C681.344 474.51 680.382 475.178 679.485 475.925C676.324 478.156 673.482 481.383 669.957 482.476C615.96 499.16 561.913 515.668 507.813 532C499.918 534.398 491.94 536.534 484 538.794C488.384 539.305 492.829 538.863 497.019 537.499C554.555 520.433 612.075 503.302 669.579 486.106C675.267 484.399 677.799 484.802 676.979 491.454C676.709 493.649 678.25 496.061 678.964 498.372C680.319 496.353 681.561 494.262 682.684 492.11C684.969 487.14 683.872 481.119 691.566 478.374C720.7 467.984 749.618 457.017 778.321 445.472C797.292 437.835 815.723 428.898 834.346 420.436C846.469 414.927 858.609 409.434 870.522 403.51C875.634 400.964 880.19 397.35 885 394.231ZM531 389.914L531.502 392C556.36 387.51 581.274 383.3 606.062 378.475C671.517 365.737 736.795 352.18 800.919 333.958C826.873 326.583 852.587 318.388 878.302 310.237C891.353 306.1 904.156 301.223 917.075 296.699C922.042 294.961 927.025 293.275 932 291.563C931.704 290.708 931.408 289.853 931.111 289C800.908 334.468 666.933 365.851 531 389.905V389.914ZM565.003 430C674.759 413.149 782.72 389.692 886 349C781.188 383.455 673.904 410.524 565 429.992L565.003 430ZM978.893 12L979 9.56973L903.119 5L903 7.93294L978.893 12ZM455 546.062L455.551 549L467 544.128C466.865 543.419 466.731 542.71 466.597 542L455 546.062Z" fill="#04132D"/>
</svg> 